<?xml version="1.0" encoding="UTF-8"?>
<svg version="1.1" viewBox="0 0 1600 1128" width="1280" height="1280" xmlns="http://www.w3.org/2000/svg">
<path transform="translate(832 589)" d="m0 0c2.04-0.0097 4.08-0.0407 6.12-0.0723 1.29-0.00516 2.57-0.0103 3.9-0.0156 1.77-0.014 1.77-0.014 3.58-0.0283 3.35 0.388 4.68 1.04 7.08 3.36 1 1.75 1 1.75 2 4 0.701 1.21 1.41 2.42 2.12 3.62 1.88 3.38 1.88 3.38 1.88 5.38h2c0.437 0.818 0.437 0.818 0.883 1.65 2.26 4.16 4.61 8.14 7.3 12 2.27 3.33 3.8 6.37 4.81 10.3h2c0.474 1.03 0.949 2.06 1.44 3.12 2.09 4.2 4.53 8.12 7.06 12.1 0.38 0.594 0.759 1.19 1.15 1.8 1.67 2.58 3.38 5.05 5.32 7.44 2.64 3.34 4.81 6.89 7.03 10.5 1.66 2.69 3.33 5.38 5 8.06 0.365 0.597 0.73 1.19 1.11 1.81 2.08 3.41 2.08 3.41 5.64 5.07 0.743 0.0412 1.49 0.0825 2.25 0.125 1.23-2.23 1.23-2.23 2-5-0.459-1.09-0.459-1.09-0.928-2.21-1.33-3.47-1.36-6.63-1.35-10.3-0.00511-0.737-0.0102-1.47-0.0155-2.23-0.0139-2.43-0.0129-4.85-0.0106-7.28-0.00389-1.69-0.00822-3.38-0.013-5.07-0.00745-3.54-0.00718-7.07-0.00191-10.6 0.00581-4.53-0.0112-9.07-0.0343-13.6-0.0147-3.49-0.0156-6.97-0.0125-10.5-5.14e-4 -1.67-0.00576-3.34-0.0158-5.02-0.0123-2.33-0.00561-4.67 0.00601-7-0.00764-0.692-0.0153-1.38-0.0232-2.1 0.0315-2.86 0.0653-4.69 1.79-7.03 4.46-3.09 9.02-2.36 14.2-1.55 3.32 0.43 5.16 0.111 8.38-0.562 3.34-0.191 6.67-0.348 10 0 2 2 2 2 2.25 4.59-0.00184 1.1-0.00369 2.21-0.00559 3.35 0.00412 1.9 0.00412 1.9 0.00833 3.83-0.00708 1.41-0.0143 2.82-0.0218 4.23-5.64e-4 1.48-2.48e-4 2.96 8.85e-4 4.43 5.75e-4 4.02-0.0112 8.04-0.0251 12.1-0.0125 4.2-0.0137 8.4-0.0161 12.6-0.00622 7.95-0.0226 15.9-0.0427 23.9-0.0223 9.05-0.0333 18.1-0.0434 27.2-0.0209 18.6-0.0561 37.3-0.101 55.9-4.76 2.56-6.71 3.14-12 2-4.31-0.229-8.27-0.155-12.5 0.75-4.84 0.346-8.51-1-12.5-3.75-1.06-2.75-1.06-2.75-1-5-0.99-0.33-1.98-0.66-3-1-1.35-1.89-1.35-1.89-2.62-4.25-0.425-0.768-0.851-1.54-1.29-2.33-1.11-2.48-1.66-4.75-2.09-7.42-0.99-0.33-1.98-0.66-3-1-0.33-1.65-0.66-3.3-1-5h-2c-4-5.29-4-5.29-4-9-1.49-0.495-1.49-0.495-3-1v-4c-1.49-0.495-1.49-0.495-3-1-2.08-2.92-3-4.38-3-8-1.49-0.495-1.49-0.495-3-1-1.21-1.75-1.21-1.75-2.38-4-0.427-0.804-0.853-1.61-1.29-2.44-0.44-0.846-0.879-1.69-1.33-2.56-0.889-1.67-1.78-3.34-2.69-5-0.396-0.743-0.791-1.49-1.2-2.25-1-1.91-1-1.91-3.11-2.75-0.8-1.33-1.54-2.69-2.25-4.06-1.77-3.24-3.59-6.39-5.69-9.44-0.442-0.65-0.884-1.3-1.34-1.97-2.38-2.12-4.62-2.1-7.72-2.53 0.223 1.26 0.223 1.26 0.451 2.54 1.46 8.97 1.62 17.3 1.17 26.4-0.123 2.88-0.234 5.75-0.34 8.63-0.0279 0.748-0.0558 1.5-0.0845 2.27-0.203 5.96-0.233 11.9-0.205 17.9 0.00403 0.89 0.00806 1.78 0.0122 2.7 0.0239 4.38 0.0637 8.75 0.117 13.1 0.0118 1.6 0.0233 3.2 0.0347 4.79 0.0135 0.733 0.027 1.47 0.0409 2.22 0.0185 3.72-0.0775 5.26-2.2 8.44-6.52 1.65-13.3 0.892-19.9 0.562-1.16-0.0522-2.32-0.104-3.52-0.158-2.85-0.129-5.7-0.264-8.54-0.404-1.05-3.14-1.12-5.31-1.11-8.6 7.05e-5 -1.17 1.41e-4 -2.33 2.14e-4 -3.53 0.00517-1.28 0.0103-2.56 0.0157-3.88 0.00192-1.36 0.00338-2.72 0.00443-4.09 0.00316-2.93 0.00943-5.87 0.0181-8.8 0.0135-4.64 0.0194-9.28 0.0241-13.9 0.0121-10.7 0.0341-21.4 0.0562-32.1 0.0202-9.79 0.0383-19.6 0.0482-29.4 0.00498-4.61 0.0148-9.22 0.0284-13.8 0.00747-2.87 0.0108-5.74 0.013-8.61 0.00276-1.96 0.0106-3.93 0.0185-5.89 7.05e-5 -1.17 1.41e-4 -2.34 2.14e-4 -3.55 0.00222-1.02 0.00444-2.03 0.00673-3.08-0.0412-2.78-0.0412-2.78-0.709-5.47-0.411-2.31-0.411-2.31 0.902-5.06 3.78-5.05 10.2-3.47 16-3.49z" fill="#299A3B"/>
<path transform="translate(664,589)" d="m0 0c2.32 0.128 4.64 0.213 6.96 0.265 1 0.0247 1 0.0247 2.03 0.0498 1.44 0.0351 2.89 0.0683 4.33 0.0998 2.29 0.0506 4.58 0.107 6.88 0.166 6.51 0.165 13 0.321 19.5 0.469 3.99 0.0909 7.99 0.19 12 0.295 1.51 0.038 3.03 0.0727 4.54 0.104 11.6 0.24 21.2 1.45 31.7 6.55 0.897 0.406 1.79 0.812 2.72 1.23 0.897 0.419 1.79 0.838 2.72 1.27 0.824 0.382 1.65 0.763 2.5 1.16 2.43 1.58 2.86 2.76 4.07 5.34 1.39 1.48 2.84 2.92 4.31 4.31 8.01 7.85 12.8 16.2 16.1 26.9 0.467 1.79 0.467 1.79 1.61 2.79 0.543 2.91 1.04 5.82 1.5 8.75 0.26 1.62 0.52 3.24 0.781 4.86 0.123 0.769 0.245 1.54 0.372 2.33 0.267 1.59 0.587 3.16 0.929 4.73 0.529 2.94 0.588 5.77 0.605 8.76 0.0142 1.09 0.0284 2.18 0.043 3.31-0.242 3.41-1.1 6.04-2.23 9.25-0.332 2.08-0.623 4.16-0.875 6.25-0.879 6.07-2.54 11.2-5.12 16.8-0.454 1.01-0.908 2.02-1.38 3.06-2.28 4.12-4.68 8.25-7.62 11.9h-2c-0.33 1.32-0.66 2.64-1 4h-2v2c-1.99 1.56-3.94 2.95-6.06 4.31-0.624 0.402-1.25 0.805-1.89 1.22-6.66 4.11-13.5 6.36-21 8.47-1.6 0.515-1.6 0.515-3.24 1.04-3.94 1-7.34 1.24-11.4 1.29-0.728 0.0117-1.46 0.0233-2.21 0.0353-2.38 0.0357-4.76 0.0578-7.15 0.0792-1.66 0.0213-3.33 0.0432-4.99 0.0659-3.48 0.0453-6.95 0.0841-10.4 0.118-4.46 0.0437-8.92 0.1-13.4 0.162-3.43 0.0461-6.86 0.0869-10.3 0.126-1.64 0.019-3.29 0.0394-4.93 0.0611-2.29 0.0291-4.59 0.0515-6.88 0.0718-1.96 0.0209-1.96 0.0209-3.95 0.0423-3.16-0.0957-3.16-0.0957-6.16-1.1-3.31-4.97-3.42-9.25-3.36-15-0.00204-0.888-0.00409-1.78-0.0062-2.69-0.00301-2.94 0.0155-5.88 0.0345-8.82 0.00307-2.08 0.00494-4.16 0.00568-6.23 0.00461-4.38 0.019-8.75 0.0412-13.1 0.0277-5.49 0.0391-11 0.0438-16.5 0.0342-35.5 0.0342-35.5 0.548-51.8 0.0269-0.864 0.0538-1.73 0.0815-2.62 0.128-3.99 0.271-7.98 0.441-12 0.392-8.13 0.392-8.13-0.947-16.1-0.292-1.05-0.585-2.11-0.886-3.19 4.24-5.69 7.37-6.18 14-5zm25 39c-0.374 2.74-0.508 5.07-0.454 7.8-5.84e-4 0.781-0.00117 1.56-0.00177 2.37 0.00278 2.58 0.0339 5.15 0.0652 7.73 0.00746 1.79 0.0132 3.58 0.0172 5.36 0.0153 4.7 0.0545 9.4 0.0988 14.1 0.0409 4.8 0.0592 9.6 0.0793 14.4 0.0429 9.41 0.111 18.8 0.195 28.2 3.83 2.1 7.13 2.34 11.4 2.37 0.723 0.00903 1.45 0.0181 2.19 0.0274 1.53 0.0145 3.06 0.0234 4.59 0.0271 2.31 0.0118 4.61 0.0609 6.92 0.112 8.73 0.0969 16.4-0.31 23.9-5.54 2.43-2.64 2.43-2.64 3-6h2c6.44-10.4 8.66-19.7 8.5-31.9 0.0155-1.18 0.0309-2.35 0.0469-3.57-0.0372-8.45-1.65-15.6-4.55-23.6h-2c-0.0761-0.575-0.152-1.15-0.23-1.74-1.03-3.03-2.67-4.3-5.08-6.38-0.78-0.683-1.56-1.37-2.36-2.07-8.69-6.75-19.7-6.17-30.1-6.18-1.96-0.0367-1.96-0.0367-3.97-0.0742-1.25-0.00387-2.51-0.00773-3.8-0.0117-1.14-0.00822-2.27-0.0164-3.44-0.0249-3.76 0.615-4.7 1.45-6.97 4.49z" fill="#229339"/>
<path transform="translate(712 388)" d="m0 0c1.25-0.00643 1.25-0.00643 2.52-0.013 1.75-0.00571 3.49-0.00627 5.24-0.00191 2.64 0.00316 5.29-0.0203 7.93-0.0457 8.56-0.0318 16.3 0.0267 24.4 3.36 1.4 0.502 2.79 1 4.19 1.5 1.27 0.497 2.54 0.996 3.81 1.5 1.2 0.454 2.39 0.908 3.62 1.38 3.96 1.91 6.37 3.4 9.38 6.62 0.645 5.56-0.736 9.26-3.44 14-2.09 3.79-3.5 6.42-3.97 10.8-0.59 3.25-0.59 3.25-2.79 5.35-2.8 0.898-2.8 0.898-5.67-0.0156-0.993-0.565-1.99-1.13-3.01-1.71-1.06-0.576-2.11-1.15-3.2-1.75-0.964-0.538-1.93-1.08-2.92-1.63-13.1-6.09-23.8-8-37.6-3.12-10.6 4-15.8 8.7-20.7 19-6.68 15.2-6.68 15.2-5.25 31.1 0.28 0.674 0.559 1.35 0.848 2.04 0.777 2.02 0.777 2.02 1.59 5.77 1.51 6.2 3.97 13.7 9.11 17.8 1.99 0.975 3.99 1.73 6.07 2.48 1.22 0.684 2.43 1.39 3.62 2.12 9.8 5.45 22.8 5.76 33.6 2.93 6.33-2.15 10.9-4.62 15.8-9.05 3.25-0.938 3.25-0.938 6-1 2.62 2.62 3.57 5.61 4.88 9 0.532 1.36 1.06 2.72 1.6 4.09 0.259 0.667 0.519 1.33 0.786 2.02 1.28 3.27 2.63 6.5 3.98 9.74 0.869 2.45 1.54 4.55 1.76 7.15-1.38 2.67-2.38 3.74-5.16 4.91-0.812 0.196-1.62 0.392-2.46 0.594-3.54 0.945-6.79 2.03-10.1 3.56-6.09 2.78-11.4 4.2-18.1 4.69-2.22 0.125-2.22 0.125-4.17 1.25-1.79 0.0965-3.58 0.131-5.38 0.133-1.07 0.00129-2.13 0.00258-3.23 0.00391-1.12-0.00387-2.24-0.00773-3.39-0.0117-1.12 0.00387-2.24 0.00773-3.39 0.0117-1.6-0.00193-1.6-0.00193-3.23-0.00391-0.982-0.00113-1.96-0.00226-2.98-0.00342-2.4-0.129-2.4-0.129-4.4-1.13-1.44-0.105-2.87-0.184-4.31-0.25-6.73-0.63-12.5-3.06-18.7-5.75-1.07-0.468-2.14-0.936-3.25-1.42-6.19-2.89-11.6-5.98-15.8-11.6v-2c-0.99-0.33-1.98-0.66-3-1-0.33-0.99-0.66-1.98-1-3-0.66-0.33-1.32-0.66-2-1-2.8-4.2-4.52-8.45-6-13.2-0.691-2.88-0.691-2.88-3-3.75-0.358-2.19-0.443-4.36-0.559-6.58-0.278-2.51-0.278-2.51-1.95-4.5-2.08-4.06-1.91-7.55-1.86-12.1-4.99e-4 -0.874-9.97e-4 -1.75-0.00151-2.65 0.00233-1.84 0.012-3.68 0.0286-5.52 0.0237-2.82 0.0205-5.64 0.0139-8.46 0.00557-1.79 0.0127-3.58 0.0215-5.37-9.11e-4 -0.844-0.00182-1.69-0.00276-2.56 0.0478-3.93 0.0732-5.96 2.3-9.31 0.437-1.71 0.808-3.45 1.12-5.19 0.168-0.901 0.335-1.8 0.508-2.73 0.121-0.687 0.242-1.37 0.367-2.08h2c0.0619-1.11 0.124-2.23 0.188-3.38 0.82-6.67 3.92-13 8.81-17.6 0.966-1.16 1.92-2.33 2.88-3.5 2.45-2.89 4.77-4.69 8.12-6.5 0.459-0.471 0.918-0.941 1.39-1.43 9.29-9.09 25-12.9 37.6-12.9z" fill="#3F3F3F"/>
<path transform="translate(1032,425)" d="m0 0c0.99 0.743 1.98 1.49 3 2.25 0.66 0.577 1.32 1.15 2 1.75v2c1.48 0.495 1.48 0.495 3 1 1.44 2.65 2.73 5.27 4 8 1.28 2.47 2.56 4.94 3.85 7.41 5.53 12.5 4.31 27.2 4.15 40.6-4.93 1.6-9.04 2.24-14.3 2.21-1.04-0.00197-1.04-0.00197-2.09-0.00398-2.26-0.00644-4.51-0.0268-6.77-0.047-1.58-0.00628-3.15-0.0115-4.73-0.0158-4.13-0.0132-8.27-0.0377-12.4-0.0654-6.63-0.0433-13.3-0.0728-19.9-0.096-2.32-0.0102-4.63-0.0273-6.95-0.045-1.41-0.00682-2.83-0.0134-4.24-0.0198-1.85-0.0124-1.85-0.0124-3.74-0.025-2.83-0.0949-2.83-0.0949-4.89 1.11-1.34 3.95-1.52 5.84 0.207 9.69 1.49 2.56 2.95 4.99 4.79 7.31h2c0.33 0.66 0.66 1.32 1 2 2.02 0.652 2.02 0.652 4 1v2c1.61 0.217 1.61 0.217 3.25 0.438 3.75 0.562 3.75 0.562 5.55 1.09 3.06 0.664 6.01 0.647 9.14 0.664 1.21 0.0142 2.41 0.0284 3.65 0.043 3.32-0.224 5.42-0.874 8.41-2.23 1.28-0.289 2.56-0.577 3.88-0.875 5.07-1.22 9.24-3.47 13.2-6.94 1.94-1.19 1.94-1.19 5.19-0.875 0.908 0.227 1.82 0.454 2.75 0.688v3c0.33 0.33 0.66 0.66 1 1 1.2 2.2 2.36 4.4 3.5 6.62 0.321 0.605 0.642 1.21 0.973 1.83 2.11 4.15 3.3 7.81 3.53 12.5-2.05 3.07-2.5 3.48-5.7 4.75-0.733 0.297-1.47 0.594-2.22 0.9-0.767 0.3-1.53 0.599-2.32 0.908-0.752 0.304-1.5 0.607-2.28 0.92-6.01 2.41-11.6 4.65-18.2 5.08-3.06 0.208-5.38 0.461-8.31 1.44-13.4 0.645-27.6 0.554-40-5-0.817-0.357-1.63-0.714-2.48-1.08-2.18-0.956-4.36-1.93-6.52-2.92v-2h-3v-2c-0.736-0.217-1.47-0.433-2.23-0.656-3.5-1.7-4.87-3.67-7.08-6.84-0.697-0.98-1.39-1.96-2.11-2.97-1.57-2.53-1.57-2.53-1.57-4.53h-2c-0.495-2.97-0.495-2.97-1-6h-2l-2-6h-1c0.0412-1.07 0.0825-2.14 0.125-3.25 0.163-3.55 0.163-3.55-1.12-5.57-1.39-3-1.27-5.51-1.27-8.81-0.00258-1.28-0.00516-2.56-0.00781-3.88 0.00419-0.664 0.00838-1.33 0.0127-2.01 0.0107-2.03 7.85e-5 -4.06-0.0127-6.1 0.00258-1.28 0.00516-2.56 0.00781-3.88 0.00226-1.17 0.00451-2.35 0.00684-3.56 0.259-2.94 0.259-2.94 2.26-5.94 0.345-2.11 0.345-2.11 0.438-4.38 0.359-3.96 1.27-6.32 3.56-9.62 0.289-0.743 0.577-1.49 0.875-2.25 2.22-5.42 4.8-10.7 9.12-14.8 0.621-0.659 1.24-1.32 1.88-2 19.9-18.8 59.2-20.2 80.1-3zm-56 24.2c-2.12 2.7-2.12 2.7-3 5.81l-2 1c-0.468 2.36-0.468 2.36-0.625 5.06-0.0748 0.919-0.15 1.84-0.227 2.79-0.049 0.71-0.098 1.42-0.148 2.15 2.31 1.16 3.65 1.13 6.22 1.15 1.31 0.00957 1.31 0.00957 2.64 0.0193 0.943 0.00111 1.89 0.00223 2.86 0.00337 0.967 0.00333 1.93 0.00666 2.93 0.0101 2.05 0.00507 4.09 0.00741 6.14 0.00725 3.14 0.00219 6.27 0.0203 9.41 0.0393 1.99 0.00293 3.97 0.00492 5.96 0.00586 1.41 0.0108 1.41 0.0108 2.85 0.0218 1.31-0.00461 1.31-0.00461 2.65-0.00932 0.769 0.00143 1.54 0.00285 2.33 0.00432 2.33-0.132 2.33-0.132 5.02-2.25 0.712-5.1-0.842-8.5-3-13h-2c-0.0619-0.743-0.124-1.49-0.188-2.25-1.08-3.65-2.7-4.63-5.81-6.75-0.732-0.522-1.46-1.04-2.22-1.58-11-5.6-22.2-0.729-29.8 7.77z" fill="#3F3F3F"/>
<path transform="translate(1357 415)" d="m0 0c2.14-0.00434 4.27-0.0407 6.4-0.0786 12.8-0.106 24.7 1.69 35.7 8.45v2c0.557 0.206 1.11 0.413 1.69 0.625 6.04 3.59 9.28 10.3 12.3 16.4 0.435 0.868 0.869 1.74 1.32 2.63 4.45 10 4.38 19.3 4.28 30.2-0.00171 1.88-0.00164 3.76 1.22e-4 5.65-0.00164 3.92-0.0202 7.83-0.0519 11.7-0.04 5.03-0.044 10-0.0365 15.1 0.00306 3.87-0.00902 7.75-0.0261 11.6-0.00704 1.85-0.0102 3.71-0.00931 5.56-0.00179 2.58-0.0231 5.15-0.0501 7.73 0.00293 0.767 0.00586 1.53 0.00888 2.32-0.0344 2.12-0.0344 2.12-0.429 5.5-4.26 2.84-7.93 2.37-12.9 2.38-0.907 0.0245-1.81 0.049-2.75 0.0742-6.62 0.0292-6.62 0.0292-9.84-2.18-1.5-2.3-2.4-4.26-3.16-6.89-0.966-3.26-0.966-3.26-2.31-6.38 0.495-1.49 0.495-1.49 1-3-4.13-0.943-4.13-0.943-8.25-0.375-2.34 1.84-2.7 3.6-3.75 6.38-3.39 6.58-8.18 9.44-15 12-10.3 3.24-23.8 3.84-34 0-3.54-2.09-6.77-4.46-10-7-0.755-0.486-1.51-0.972-2.29-1.47-0.565-0.504-1.13-1.01-1.71-1.53v-4h-2c-0.731-1.98-1.39-3.98-2-6 0.495-0.99 0.495-0.99 1-2h-2c-2.03-11-3.77-20.7 2.65-30.5 4.68-6.24 4.68-6.24 8.35-7.46 0.316-0.638 0.632-1.28 0.957-1.93 1.26-2.5 2.21-2.99 4.73-4.13 1.07-0.493 1.07-0.493 2.16-0.996 0.71-0.311 1.42-0.621 2.15-0.941 1.2-0.536 2.39-1.07 3.62-1.62 1.11-0.454 2.23-0.908 3.38-1.38 0.908-0.371 1.82-0.743 2.75-1.12 3.98-1.07 7.85-1.36 12-1.63 2.26 5.35e-4 2.26 5.35e-4 3.29-1.25 1.92-0.299 3.85-0.539 5.79-0.754 1.17-0.132 2.34-0.264 3.54-0.4 1.23-0.135 2.46-0.269 3.73-0.408 1.24-0.139 2.47-0.277 3.74-0.42 3.06-0.343 6.13-0.682 9.19-1.02 0.229-1.6 0.439-3.21 0.641-4.81 0.119-0.893 0.238-1.79 0.36-2.71 0.247-2.77 0.247-2.77-2.25-5.48-1.89-1.37-3.81-2.7-5.75-4v-2c-0.908 0.0412-1.82 0.0825-2.75 0.125-3.25-0.125-3.25-0.125-4.99-1.12-3.26-1.45-6.15-1.27-9.7-1.26-1.3-0.00516-2.6-0.0103-3.93-0.0156-3.41 0.25-5.57 0.84-8.63 2.27-1.11 0.309-2.23 0.619-3.38 0.938-7.23 2.12-12.2 4.96-17.6 10.1-3.84-1.67-3.84-1.67-5.25-4.62-0.247-0.784-0.495-1.57-0.75-2.38h-2c-0.619-1.45-0.619-1.45-1.25-2.94-1.6-3.74-3.28-7.45-4.98-11.1-0.77-1.92-0.77-1.92-0.77-3.92h2c0.227-0.577 0.454-1.15 0.688-1.75 3.23-5.53 7.92-6.94 13.8-8.53 2.28-0.643 4.41-1.4 6.61-2.28 8.88-3.35 17.4-3.81 26.8-3.81zm7.76 72.4c-2.39 0.84-4.22 1.18-6.72 1.31-5.43 0.862-9.54 3.39-13.9 6.62-1.38 2.77-1.42 5.3-1.69 8.38-0.107 1.14-0.214 2.28-0.324 3.46 0.0117 3.16 0.195 4.62 2.01 7.16 6.49 3.71 12.2 3.95 19.4 2.17 6.61-1.93 6.61-1.93 12.6-5.17v-2c0.99-0.33 1.98-0.66 3-1 1.09-2.39 1.95-4.64 2.75-7.12 0.35-0.978 0.35-0.978 0.707-1.98 1.53-4.61 1.72-8.07 0.543-12.9-1.94-2.36-1.94-2.36-5.44-2.38-4.7 0.0938-8.58 1.72-12.9 3.44zm19.3 0.934 1 2z" fill="#3F3F3F"/>
<path transform="translate(1102,417)" d="m0 0v3c0.474 0.743 0.949 1.49 1.44 2.25 1.86 3.27 2.2 6.04 2.56 9.75 4.48 0.723 4.48 0.723 9 1 0.268-0.722 0.536-1.44 0.812-2.19 3.07-7.27 3.07-7.27 6.88-9.12 0.763-0.227 1.53-0.454 2.31-0.688v-2c11-6.6 24.9-7.09 37.2-4.54 5.42 1.54 10.5 3.81 14.8 7.54v2c0.99 0.33 1.98 0.66 3 1 1.66 2.43 3.16 4.83 4.62 7.38 0.407 0.686 0.815 1.37 1.23 2.08 2.49 4.24 4.27 7.6 4.26 12.6 0.00206 1.24 0.00206 1.24 0.00417 2.51-0.00539 1.36-0.00539 1.36-0.0109 2.74 1.46e-4 0.956 2.92e-4 1.91 4.43e-4 2.9-6.97e-4 3.17-0.00848 6.33-0.0163 9.5-0.00186 2.19-0.00329 4.39-0.00429 6.58-0.00382 5.78-0.0136 11.6-0.0247 17.3-0.0102 5.89-0.0148 11.8-0.0198 17.7-0.0107 11.6-0.0278 23.1-0.0488 34.7-2.97 1.49-5.66 1.11-8.98 1.1-1.03-0.00212-1.03-0.00212-2.08-0.00429-2.19-0.0056-4.38-0.0182-6.57-0.0309-1.48-0.00501-2.97-0.00958-4.45-0.0137-3.64-0.011-7.28-0.0283-10.9-0.0488-1.48-2.95-1.15-5.61-1.17-8.91-0.00669-0.711-0.0134-1.42-0.0203-2.15-0.0141-1.55-0.026-3.1-0.0359-4.64-0.0164-2.46-0.0397-4.92-0.0649-7.38-0.0706-7-0.13-14-0.182-21-0.0321-4.28-0.0735-8.56-0.12-12.8-0.0159-1.62-0.0283-3.24-0.0369-4.87 0.821-17.2 0.821-17.2-5.37-32.2-4.4-2.54-8.94-2.33-13.9-2.31-0.777-0.0161-1.55-0.0322-2.36-0.0488-6.24-0.00524-10.8 1.24-16 4.92-8.48 11.4-8.57 27.8-7.81 41.4 0.17 0.69 0.339 1.38 0.514 2.09 0.698 4.18 0.535 8.26 0.436 12.5-0.0189 0.918-0.0377 1.84-0.0572 2.78-0.0418 1.93-0.0865 3.87-0.134 5.8-0.0705 2.96-0.125 5.93-0.178 8.89-0.0426 1.88-0.0862 3.76-0.131 5.64-0.0147 0.888-0.0294 1.78-0.0445 2.69-0.0231 0.825-0.0462 1.65-0.07 2.5-0.0245 1.09-0.0245 1.09-0.0495 2.2-0.285 1.92-0.285 1.92-2.29 4.92-4.24 0.608-8.52 0.515-12.8 0.501-2.12-9.72e-4 -4.24 0.0406-6.37 0.085-1.35 0.00521-2.7 0.0079-4.04 0.00781-1.23 0.00709-2.46 0.0142-3.72 0.0215-3.06-0.615-3.06-0.615-4.73-2.48-1.97-4.64-1.73-8.97-1.69-14-0.00204-1.09-0.00409-2.18-0.0062-3.31-0.00301-3.61 0.0155-7.22 0.0345-10.8 0.00306-2.51 0.00493-5.02 0.00568-7.53 0.0046-5.26 0.0186-10.5 0.0412-15.8 0.0288-6.74 0.0392-13.5 0.0437-20.2 0.00416-5.18 0.014-10.4 0.0259-15.5 0.00569-2.48 0.0105-4.97 0.0143-7.45 0.00689-3.48 0.0205-6.95 0.0363-10.4 0.00112-1.02 0.00224-2.05 0.00339-3.1 0.0617-10.3 0.0617-10.3 1.16-15 8.53-5.29 16.9-2.51 26 0zm54 46 1 2z" fill="#404040"/>
<path transform="translate(802 415)" d="m0 0c1.18 0.0367 1.18 0.0367 2.38 0.0742 2.03 0.154 4.05 0.436 6.06 0.738 3.21 0.432 5.14 0.138 8.25-0.562 2.33-0.0382 4.67-0.0457 7 0 0.495 1.49 0.495 1.49 1 3h2c0.775 10.4 1.1 20.7 0.957 31.2-0.0121 1.39-0.0231 2.78-0.033 4.16-0.042 5.8-0.0906 11.6-0.171 17.4-0.0488 3.58-0.0776 7.17-0.0937 10.8-0.0145 2-0.0504 3.99-0.087 5.99-0.021 7.31 0.331 14.2 4.43 20.5 0.99 0.33 1.98 0.66 3 1v2c4.39 0.842 8.54 1.13 13 1.12 1.18 0.00258 2.35 0.00516 3.56 0.00781 3.23-0.125 6.26-0.523 9.44-1.13v-2h3v-2c0.99-0.66 1.98-1.32 3-2 1.71-2.8 2.43-5.49 3.06-8.69 0.833-4.21 0.833-4.21 1.94-5.31 0.0785-2.22 0.0857-4.45 0.0659-6.68-0.00467-0.698-0.00935-1.4-0.0142-2.11-0.0105-1.52-0.0232-3.04-0.0377-4.56-0.0219-2.4-0.0361-4.81-0.0477-7.21-0.0337-6.84-0.0752-13.7-0.138-20.5-0.0376-4.18-0.0607-8.35-0.0743-12.5-0.00807-1.59-0.0217-3.19-0.0409-4.78-0.0264-2.23-0.0344-4.46-0.0381-6.69-0.0145-1.9-0.0145-1.9-0.0293-3.85 0.354-3.09 0.354-3.09 1.75-4.96 3.05-2.14 4.52-2.14 8.17-1.69 3.65 0.393 7.21 0.589 10.9 0.527 0.764-0.0128 1.53-0.0256 2.31-0.0388 1.53-0.0338 3.06-0.0799 4.58-0.139 2.14-0.0447 2.14-0.0447 5.66 0.213 2 3 2 3 1.63 5.24-0.208 0.912-0.417 1.82-0.631 2.76-0.0853 2.4-0.11 4.8-0.0977 7.21 0.00338 0.731 0.00676 1.46 0.0102 2.22 0.0613 8.77 0.293 17.5 0.494 26.3 0.623 27.5 0.476 54.8-0.406 82.3-3.58 0.116-7.17 0.187-10.8 0.25-1.02 0.0335-2.03 0.067-3.08 0.102-7.53 0.0991-7.53 0.0991-10.8-2.23-1.5-2.4-1.79-3.81-1.83-6.62-0.223-3.39-0.296-4.24-2.5-7-0.66-0.495-1.32-0.99-2-1.5l-1-1c-0.33 0.66-0.66 1.32-1 2-1.49 0.495-1.49 0.495-3 1-2.37 2-2.99 2.97-4 6-2.18 1.75-2.18 1.75-4.88 3.56-1.33 0.899-1.33 0.899-2.68 1.82-0.807 0.535-1.61 1.07-2.45 1.62-0.99 0.66-1.98 1.32-3 2-12.6 3.97-28 3.55-40-1.91-4.1-2.18-7.64-4.9-11-8.09v-3c-0.99-0.33-1.98-0.66-3-1-1.06-2.25-1.06-2.25-2-5-0.33-0.804-0.66-1.61-1-2.44-1.1-2.82-2.04-5.69-3-8.56-0.33-0.66-0.66-1.32-1-2-0.114-2.88-0.168-5.74-0.177-8.62-0.00657-0.893-0.0131-1.79-0.0199-2.71-0.0198-2.96-0.0314-5.92-0.0414-8.88-0.00408-1.01-0.00815-2.02-0.0124-3.06-0.0209-5.34-0.0352-10.7-0.0445-16-0.0111-5.53-0.0455-11.1-0.0852-16.6-0.0261-4.24-0.0345-8.48-0.0381-12.7-0.00488-2.04-0.0165-4.08-0.035-6.11-0.0242-2.85-0.0235-5.69-0.0165-8.54-0.0128-0.846-0.0256-1.69-0.0388-2.56 0.0511-5.7 0.0511-5.7 2.41-8.22 2.35-1.09 3.84-1.31 6.42-1.22z" fill="#3F3F3F"/>
<path transform="translate(1259,389)" d="m0 0c2.03 3.08 2.24 5.57 2.2 9.2-0.00645 0.98-0.0129 1.96-0.0195 2.97-0.0168 1.02-0.0335 2.03-0.0508 3.08-0.00902 1.03-0.018 2.06-0.0273 3.12-0.0235 2.54-0.0564 5.08-0.0977 7.62 4.46 1.23 8.76 1.48 13.3 0.5 2.58-0.479 5.01-0.742 7.62-0.875 0.813-0.049 1.63-0.098 2.46-0.148 3.83 0.771 6.42 2.33 8.6 5.52 0.827 3.55 0.749 6.94 0.625 10.6 0.00645 0.946 0.0129 1.89 0.0195 2.87-0.107 6.85-0.107 6.85-2.35 9.85-2.8 2.1-4.15 2.18-7.61 2.08-1.01-0.0174-2.02-0.0348-3.06-0.0527-1.57-0.057-1.57-0.057-3.18-0.115-2.08-0.0523-4.17-0.101-6.25-0.145-1.38-0.046-1.38-0.046-2.8-0.093-2.54-0.0648-2.54-0.0648-5.39 1.05-1.84 10.3-1.3 20.9-1.35 31.3-0.0166 2.65-0.044 5.3-0.082 7.94-0.0545 3.82-0.0766 7.65-0.0913 11.5-0.0227 1.19-0.0453 2.37-0.0687 3.6 0.00285 1.1 0.0057 2.2 0.00864 3.33-0.00809 0.967-0.0162 1.93-0.0245 2.93 0.394 2.67 0.394 2.67 3.01 4.24 7.66 3.52 17.4 2.31 25.6 2.2 0.186 0.928 0.186 0.928 0.375 1.88 0.497 2.32 0.497 2.32 2.62 4.12 0.173 2.83 0.232 5.55 0.188 8.38-9.67e-4 1.15-9.67e-4 1.15-0.00195 2.33-0.0558 7.17-0.0558 7.17-1.19 10.3-10.1 6.76-28 5.36-39.5 3.31-7.07-1.55-12.6-3.84-17.5-9.31-0.828-0.71-0.828-0.71-1.67-1.43-1.33-1.57-1.33-1.57-1.33-5.57-0.99-0.33-1.98-0.66-3-1-0.103-1.05-0.206-2.1-0.312-3.19-0.422-3.73-0.422-3.73-2.21-6.18-1.75-3.11-1.85-4.99-1.84-8.54-3e-3 -1.16-6e-3 -2.33-0.00909-3.53 0.0123-1.25 0.0247-2.5 0.0374-3.79 0.00187-1.29 0.00375-2.58 0.00568-3.91 0.00459-2.73 0.019-5.45 0.0412-8.18 0.0283-3.49 0.0392-6.97 0.0437-10.5 0.00517-3.34 0.0197-6.67 0.0344-10 0.00425-1.25 0.0085-2.5 0.0129-3.79 0.00961-1.16 0.0192-2.33 0.0291-3.53 0.00683-1.02 0.0137-2.04 0.0207-3.1 0.135-2.7 0.582-5.16 1.14-7.81v-3-2c-0.953 0.0464-1.91 0.0928-2.89 0.141-1.25 0.0361-2.51 0.0722-3.8 0.109-1.24 0.0464-2.48 0.0928-3.76 0.141-4.12-0.453-5.66-1.49-8.55-4.39-1.76-3.53-1.23-7.55-1.25-11.4-0.0206-0.872-0.0412-1.74-0.0625-2.64-0.00516-0.839-0.0103-1.68-0.0156-2.54-0.00935-0.768-0.0187-1.54-0.0283-2.33 0.456-2.63 1.23-3.48 3.36-5.05 4.17-0.777 7.97-1.03 12.2-0.875 4.12-0.135 5.89-0.202 8.81-3.12 0.535-2.34 0.749-4.55 0.859-6.94 0.141-2.06 0.141-2.06 1.14-4.06h2c-0.103-0.866-0.206-1.73-0.312-2.62 0.333-3.59 1.17-5.47 3.64-8.11 5.69-4.3 15.1-4.22 21.7-2.26zm31 129 1 4z" fill="#3F3F3F"/>
<path transform="translate(470 470)" d="m0 0c2.12 1.85 2.98 3.15 4 5.75 0.339 0.612 0.678 1.22 1.03 1.86 1.66 3.65 1.52 7.22 0.973 11.1-2.26 4.53-4.5 6.78-9 9-2.72 0.501-5.38 0.907-8.12 1.25-8.51 1.27-15.4 4.16-21.5 10.5-1.34 1.28-1.34 1.28-3.34 1.28-0.227 0.639-0.454 1.28-0.688 1.94-1.31 3.06-1.31 3.06-2.49 4.94-3.57 5.72-4.69 10.8-5.46 17.5-0.359 2.62-0.359 2.62-1.36 3.62-0.0847 3.13-0.104 6.24-0.0818 9.37 0.00307 0.984 0.00613 1.97 0.00929 2.98 0.00717 2.14 0.0166 4.29 0.0279 6.43 0.0173 3.4 0.0277 6.79 0.0359 10.2 0.0245 9.66 0.0599 19.3 0.105 29 0.0268 5.9 0.0438 11.8 0.0549 17.7 0.0062 2.25 0.0162 4.5 0.0301 6.75 0.0193 3.15 0.0261 6.3 0.0303 9.46 0.00876 0.927 0.0175 1.85 0.0266 2.81-0.00781 5.19-0.555 9.42-2.24 14.3-0.268 0.866-0.536 1.73-0.812 2.62-1.56 3.12-3.58 5.08-6.19 7.38-0.99 0.33-1.98 0.66-3 1v2c-6.87 3.75-12.6 4.59-20.4 4.53-1.06 0.00383-2.12 0.00765-3.21 0.0116-2.23 0.00271-4.46-0.00457-6.68-0.0214-3.4-0.0215-6.81-1.23e-4 -10.2 0.0254-2.17-0.00264-4.35-0.00777-6.52-0.0156-1.01 0.0081-2.03 0.0162-3.07 0.0245-5.93-0.0785-9.43-0.566-13.9-4.56-1.25-2.5-1.25-2.5-2-5-0.392-0.66-0.784-1.32-1.19-2-1.14-2.81-0.853-4.16 0.188-7 5.11-5.8 10.1-9.66 18-10.2 1.04 0.0168 2.08 0.0337 3.16 0.051 1.16 0.011 2.32 0.0219 3.51 0.0332 1.8 0.0319 1.8 0.0319 3.63 0.0645 11.4 0.276 11.4 0.276 22.7-0.938 3.65-5.48 3.12-11.6 2.54-17.9-0.58-7.05-0.759-14.1-0.856-21.1-0.0208-1.29-0.0416-2.58-0.063-3.92-0.0545-3.4-0.104-6.79-0.153-10.2-0.0404-2.76-0.0843-5.52-0.128-8.28-0.609-38.2-0.609-38.2 1.72-46.2 0.803-2.89 0.997-4.49 0.875-7.38-0.0984-4.27 1.11-7.16 3.06-11 0.329-0.665 0.657-1.33 0.996-2.02 9.32-17.9 23-29.8 42.1-36.4 7.66-2.35 16.2-4.53 23.9-1.34z" fill="#22943A"/>
<path transform="translate(928 590)" d="m0 0c3.32 0.43 5.16 0.111 8.38-0.562 3.34-0.191 6.67-0.348 10 0 2 2 2 2 2.25 4.59-0.00277 1.66-0.00277 1.66-0.00559 3.35 0.00275 1.26 0.0055 2.53 0.00833 3.83-0.00708 1.41-0.0143 2.82-0.0218 4.23-5.64e-4 1.48-2.48e-4 2.96 8.85e-4 4.43 5.75e-4 4.02-0.0112 8.04-0.0251 12.1-0.0125 4.2-0.0137 8.4-0.0161 12.6-0.00622 7.95-0.0226 15.9-0.0427 23.9-0.0223 9.05-0.0333 18.1-0.0434 27.2-0.0209 18.6-0.0561 37.3-0.101 55.9-4.76 2.56-6.71 3.14-12 2-4.31-0.229-8.27-0.155-12.5 0.75-4.84 0.346-8.51-1-12.5-3.75-1.06-2.75-1.06-2.75-1-5-0.99-0.33-1.98-0.66-3-1-1.35-1.89-1.35-1.89-2.62-4.25-0.425-0.768-0.851-1.54-1.29-2.33-1.11-2.48-1.66-4.75-2.09-7.42-0.99-0.33-1.98-0.66-3-1-0.495-2.48-0.495-2.48-1-5h-2c-4-5.29-4-5.29-4-9-0.99-0.33-1.98-0.66-3-1 0.33-0.99 0.66-1.98 1-3 0.66 0.66 1.32 1.32 2 2 1.25-3.55 0.723-5.72-0.438-9.25-0.431-1.34-0.431-1.34-0.871-2.7-0.228-0.675-0.456-1.35-0.691-2.05h-1c-0.312-2.31-0.312-2.31 0-5 2.92-2.56 4.81-2.98 8.69-3.31 3.31 0.312 3.31 0.312 5.31 2.31 0.66 0.33 1.32 0.66 2 1v5c0.763-0.351 1.53-0.701 2.31-1.06 2.69-0.938 2.69-0.938 5.69 0.0625 0.335-2.33 0.335-2.33 0-5-1.9-2.31-1.9-2.31-4-4h4c1.23-2.23 1.23-2.23 2-5-0.306-0.728-0.613-1.46-0.928-2.21-1.33-3.47-1.36-6.63-1.35-10.3-0.00767-1.11-0.00767-1.11-0.0155-2.23-0.0139-2.43-0.0129-4.85-0.0106-7.28-0.00389-1.69-0.00822-3.38-0.013-5.07-0.00745-3.54-0.00718-7.07-0.00191-10.6 0.00581-4.53-0.0112-9.07-0.0343-13.6-0.0147-3.49-0.0156-6.97-0.0125-10.5-5.14e-4 -1.67-0.00576-3.34-0.0158-5.02-0.0123-2.33-0.00561-4.67 0.00601-7-0.0115-1.04-0.0115-1.04-0.0232-2.1 0.0315-2.86 0.0653-4.69 1.79-7.03 4.46-3.09 9.02-2.36 14.2-1.55z" fill="#22953A"/>
<path transform="translate(1017,590)" d="m0 0c1.03 3.09 1.13 5.2 1.13 8.44 0.00282 1.13 0.00564 2.26 0.00854 3.43-0.00202 1.24-0.00405 2.48-0.00613 3.76 0.00175 1.31 0.0035 2.62 0.00531 3.96 0.00457 3.59 0.00279 7.18-3.79e-4 10.8-0.00253 3.77-1.83e-4 7.53 0.00139 11.3 0.00182 6.33-5.81e-4 12.7-0.00534 19-0.00542 7.3-0.0037 14.6 0.00183 21.9 0.00456 6.28 0.00517 12.6 0.00256 18.8-0.00155 3.74-0.00179 7.49 0.00154 11.2 0.00292 3.53 8.33e-4 7.06-0.00489 10.6-0.00193 1.89 9.95e-4 3.79 0.00413 5.68-0.0512 21-0.0512 21-2.14 23.1-1.62 0.146-3.25 0.227-4.88 0.281-1 0.0374-2.01 0.0748-3.04 0.113-1.06 0.0348-2.11 0.0696-3.2 0.105-8.02 0.21-8.02 0.21-16 1.07-2.9 0.426-2.9 0.426-5.15-0.262-2.12-1.59-3.37-3.04-4.75-5.31 0.136-2.24 0.136-2.24 0.797-4.65 1.21-5.1 1.48-9.78 1.45-15 0.0019-0.909 0.0038-1.82 0.00575-2.75 0.00368-2.98-0.00697-5.97-0.0182-8.95-0.0012-2.11-0.00164-4.22-0.00139-6.33-0.00156-4.43-0.00981-8.86-0.0233-13.3-0.0168-5.58-0.0207-11.2-0.0202-16.7 1.04-38.8 1.04-38.8-2.19-77.3 5.62-4.18 9.81-4.31 16.7-4.07 2.96 0.06 5.66-0.156 8.59-0.559 4.73-0.541 8.21-0.00413 12.7 1.62z" fill="#22953A"/>
<path transform="translate(228 635)" d="m0 0c1.29-0.0116 1.29-0.0116 2.6-0.0234 2.87 0.489 3.57 1.11 5.34 3.4 4.72 7.21 8.56 14.9 12.3 22.7 1.43 2.91 2.86 5.64 4.67 8.34h2c0.66 1.65 1.32 3.3 2 5h2v2l2 1c2.06 1.31 2.06 1.31 4 3 0.144 0.681 0.289 1.36 0.438 2.06 0.186 0.639 0.371 1.28 0.562 1.94 1.65 0.702 3.32 1.37 5 2 0.33 0.99 0.66 1.98 1 3 1.88 1.54 1.88 1.54 4.19 2.94 0.807 0.519 1.61 1.04 2.45 1.57 1.43 0.9 2.86 1.8 4.3 2.7 1.39 0.886 2.73 1.83 4.07 2.79v2c0.572 0.12 1.14 0.24 1.73 0.363 2.41 0.677 4.32 1.64 6.52 2.82 17.3 8.77 33.9 12.1 53.2 12.4 14.5 0.294 14.5 0.294 18.3 4.23 2.85 5.45 4.32 9.99 3.22 16.2-1.66 3.91-3.14 5.41-7 7-14.3 2.64-31.9 1.85-45.7-2.32-2.48-0.81-2.48-0.81-5.91-1.12-9.24-1.54-18-6.59-26.4-10.6-0.968-0.44-1.94-0.879-2.93-1.33-6.31-2.97-12.1-6.51-17.8-10.4-1.07-0.726-1.07-0.726-2.17-1.47-1.73-1.21-3.41-2.49-5.08-3.78v-2c-0.99-0.33-1.98-0.66-3-1-1.37-1.64-2.69-3.31-4-5-2.51-2.58-5.08-5.08-7.69-7.56-2.02-2.13-3.22-3.75-4.31-6.44h-2c-0.433-0.959-0.433-0.959-0.875-1.94-0.953-2.21-0.953-2.21-3.12-3.06-0.33-0.99-0.66-1.98-1-3-0.66-0.33-1.32-0.66-2-1-1.54-3.27-2.39-6.45-3-10-0.99-0.33-1.98-0.66-3-1-0.372-1.32-0.706-2.66-1-4-0.66-0.33-1.32-0.66-2-1-0.707-1.65-1.37-3.32-2-5-0.804-1.3-0.804-1.3-1.62-2.62-1.97-4.83-2.07-9.23-1.38-14.4 2.94-5.87 6.33-9.44 13.1-9.38z" fill="#229439"/>
<path transform="translate(243 388)" d="m0 0c1.32-0.00961 2.64-0.0192 3.99-0.0291 1.43-0.00485 2.85-0.00913 4.28-0.0129 1.09-0.00424 1.09-0.00424 2.2-0.00857 3.83-0.0149 7.67-0.0242 11.5-0.0285 3.95-0.00549 7.89-0.0295 11.8-0.058 3.05-0.0187 6.1-0.0238 9.14-0.0254 1.45-0.00301 2.91-0.011 4.36-0.0242 15.7-0.132 15.7-0.132 22.3 5.29 2.9 3.68 2.97 7.31 2.91 12-0.509 3.75-2.08 6.03-4.29 9.1-3.47 2.39-6.67 2.25-10.8 2.24-0.675 0.00201-1.35 0.00403-2.05 0.0061-1.46 0.00354-2.92 0.00279-4.39-0.00178-2.32-0.0056-4.63 0.00358-6.95 0.0172-6.58 0.0371-13.2 0.0557-19.8 0.0444-4.03-0.00586-8.06 0.0124-12.1 0.0459-1.53 0.00794-3.07 0.00669-4.6-0.00402-2.15-0.0144-4.29 0.00197-6.44 0.025-1.83 9.44e-4 -1.83 9.44e-4 -3.7 0.00191-4.17 0.807-5.64 2.32-8.23 5.63-1.16 2.89-1.13 5.66-1.13 8.76-0.00315 0.942-0.0063 1.88-0.00955 2.85 0.00202 1.01 0.00405 2.03 0.00613 3.07-9.57e-4 1.05-0.00191 2.11-0.0029 3.19-6.81e-4 2.23 0.00117 4.47 0.00534 6.7 0.00531 3.38 7.3e-5 6.76-0.00635 10.1 6.62e-4 2.18 0.00194 4.35 0.00391 6.53-0.00202 0.997-0.00405 1.99-0.00613 3.02 0.0198 6.09 0.366 12.1 0.998 18.1 0.239 4.43-0.55 7.9-3.3 11.5-4.22 3.04-9.62 2.78-14.6 2.12-2.9-1.18-5.08-2.52-7-5-1.71-5-2.24-9.31-2.18-14.6 0.00464-0.723 0.00929-1.45 0.0141-2.19 0.0182-2.37 0.0518-4.74 0.0868-7.1 0.0186-1.66 0.0367-3.31 0.0543-4.97 0.0394-3.46 0.0867-6.93 0.139-10.4 0.0664-4.43 0.11-8.86 0.147-13.3 0.0318-3.42 0.0772-6.84 0.126-10.3 0.0216-1.63 0.0388-3.27 0.0512-4.9 0.0191-2.29 0.0569-4.57 0.0994-6.86 0.0171-1.3 0.0343-2.6 0.0519-3.93 0.446-3.81 1.51-6.22 3.41-9.52 0.495-0.969 0.99-1.94 1.5-2.94 7.93-9.71 20-14.2 32.2-14.2zm-33.7 18.2 1 2z" fill="#404040"/>
<path transform="translate(471 388)" d="m0 0c1.28-0.0128 2.55-0.0255 3.87-0.0387 1.38-0.00306 2.75-0.00529 4.13-0.00674 1.44-0.00644 2.87-0.0132 4.31-0.0202 3.01-0.0119 6.01-0.0157 9.02-0.0145 3.81 2.02e-4 7.63-0.027 11.4-0.0615 2.97-0.0225 5.94-0.0263 8.9-0.0252 1.4-0.00233 2.81-0.011 4.21-0.0267 10.1-0.102 22.4-0.14 30.3 7.01 0.73 0.817 1.46 1.63 2.21 2.48 0.571 0.632 1.14 1.26 1.73 1.91 0.481 0.565 0.962 1.13 1.46 1.71 0.733 0.855 0.733 0.855 1.48 1.73 4.49 5.56 4.49 10.7 4.54 17.6 0.00978 0.783 0.0196 1.57 0.0296 2.37 0.0298 2.58 0.0513 5.16 0.0702 7.74 0.00657 0.883 0.0131 1.77 0.0199 2.68 0.0325 4.67 0.057 9.34 0.0765 14 0.0179 3.86 0.0527 7.72 0.103 11.6 0.0601 4.67 0.0909 9.33 0.101 14 0.00856 1.78 0.0274 3.55 0.0567 5.33 0.0389 2.49 0.04 4.97 0.0321 7.45 0.03 1.1 0.03 1.1 0.0606 2.22-0.0403 2.83-0.221 5.05-2.05 7.29-3.21 2.79-5.58 4.08-9.84 3.92-0.828-0.0103-1.66-0.0206-2.51-0.0312-2.82-0.558-4.28-1.51-6.37-3.47v-2h-2c-3.84-6.78-3.35-13.4-3.22-21 0.0107-1.36 0.0197-2.73 0.0272-4.09 0.0227-3.57 0.0617-7.15 0.106-10.7 0.0704-5.72 0.126-11.4 0.162-17.2 0.0166-1.99 0.0465-3.97 0.0767-5.96 0.0148-1.83 0.0148-1.83 0.0298-3.69 0.0135-1.06 0.027-2.13 0.0409-3.23-0.161-3.85-0.161-3.85-2.22-10.1-23.4-0.33-46.9-0.66-71-1v-2c-0.835-0.0928-0.835-0.0928-1.69-0.188-3.4-1.19-5.04-3.05-7.31-5.81-1.26-4.22-1.31-7.8 0-12 4.87-6.89 11.4-8.23 19.6-8.29zm63.4 34.3 1 2zm0 61 1 3z" fill="#404040"/>
<path transform="translate(552,635)" d="m0 0c5.65 4.55 6.22 10 7 17 0.227 5.62 0.169 11.2 0.082 16.8-0.0186 1.61-0.0367 3.21-0.0543 4.82-0.0392 3.35-0.0865 6.69-0.139 10-0.0666 4.28-0.11 8.56-0.147 12.8-0.0318 3.31-0.0772 6.62-0.126 9.93-0.0216 1.58-0.0387 3.16-0.0512 4.73-0.0191 2.2-0.0569 4.41-0.0994 6.61-0.0257 1.88-0.0257 1.88-0.0519 3.79-0.452 3.75-1.45 6.21-3.41 9.42-0.99 0.495-0.99 0.495-2 1-0.495 1.49-0.495 1.49-1 3-1.86 1.75-1.86 1.75-4.19 3.56-0.757 0.599-1.51 1.2-2.29 1.82-5.29 3.41-10.4 3.91-16.5 3.85-0.781 2.92e-4 -1.56 5.84e-4 -2.37 8.85e-4 -2.56-0.00139-5.13-0.0169-7.69-0.0326-1.79-0.00373-3.57-0.00658-5.36-0.00858-4.69-0.00762-9.37-0.0272-14.1-0.0494-4.79-0.0205-9.57-0.0296-14.4-0.0397-9.38-0.0214-18.8-0.0555-28.1-0.0977v-2h-3v-4c-0.99-0.33-1.98-0.66-3-1-1.74-3.48-0.734-7.28 0-11 1.68-3.6 2.66-4.78 6-7 7.12-2.37 14-2.24 21.4-2.16 1.95 0.00795 3.91 0.0159 5.86 0.0235 2.72 0.0131 5.44 0.0353 8.16 0.0576 4.76 0.0381 9.52 0.0665 14.3 0.0877 2.53 0.0122 5.06 0.0297 7.59 0.0533 6.01 0.034 11.8-0.127 17.7-1.06v-2h2c-0.0707-0.559-0.141-1.12-0.214-1.7-0.851-7.44-0.935-14.8-0.911-22.3-0.00387-1.23-0.00773-2.45-0.0117-3.71 0.00129-1.17 0.00258-2.33 0.00391-3.54 0.00113-1.06 0.00226-2.11 0.00342-3.2 0.129-2.55 0.129-2.55 1.13-4.55h-2c-0.117-3.98-0.188-7.96-0.25-11.9-0.0335-1.12-0.067-2.23-0.102-3.38-0.0986-8.4 1.57-14 5.79-21.1 3.83-3.83 9.38-4.71 14.6-3.56zm-18 70 1 4z" fill="#3F3F3F"/>
<path transform="translate(470 470)" d="m0 0c2.12 1.85 2.98 3.15 4 5.75 0.339 0.612 0.678 1.22 1.03 1.86 1.66 3.65 1.52 7.22 0.973 11.1-2.26 4.53-4.5 6.78-9 9-2.72 0.501-5.38 0.907-8.12 1.25-8.51 1.27-15.4 4.16-21.5 10.5-1.34 1.28-1.34 1.28-3.34 1.28-0.227 0.639-0.454 1.28-0.688 1.94-1.31 3.06-1.31 3.06-2.49 4.94-4.03 6.45-5.05 12.6-5.82 20.1h-4c-0.33-1.65-0.66-3.3-1-5-0.908 0.474-1.82 0.949-2.75 1.44-2.51 1.21-4.55 2.04-7.25 2.56-0.33 1.32-0.66 2.64-1 4-0.99-0.33-1.98-0.66-3-1v-3h-2c0.0412-1.09 0.0825-2.19 0.125-3.31 0.196-3.78 0.196-3.78-2.12-6.69-0.66-0.33-1.32-0.66-2-1-0.377-6.15 0.106-10.4 3-16 0.329-0.664 0.657-1.33 0.996-2.01 9.3-17.9 23.1-29.8 42.1-36.4 7.66-2.35 16.2-4.53 23.9-1.34z" fill="#229239"/>
<path transform="translate(287,702)" d="m0 0c5.82 1.21 10.8 3.19 16.2 5.7 14.9 6.81 29.1 8.65 45.3 8.92 14.5 0.296 14.5 0.296 18.3 4.23 2.85 5.45 4.32 9.99 3.22 16.2-1.66 3.91-3.14 5.41-7 7-14.3 2.64-31.9 1.85-45.7-2.32-2.48-0.81-2.48-0.81-5.91-1.12-9.24-1.54-18-6.58-26.4-10.6-1.57-0.746-1.57-0.746-3.18-1.51-13.5-6.55-13.5-6.55-17.8-10.5-0.33-1.32-0.66-2.64-1-4 2.97 0.33 5.94 0.66 9 1v2c3.32 0.938 6.55 1.74 10 2 2.74-1.48 2.74-1.48 4-4v-3c-1.32 0.33-2.64 0.66-4 1 0.33-1.98 0.66-3.96 1-6h6c-0.66-1.65-1.32-3.3-2-5z" fill="#29993B"/>
<path transform="translate(859,605)" d="m0 0h2c0.437 0.818 0.437 0.818 0.883 1.65 2.26 4.16 4.61 8.14 7.3 12 2.27 3.33 3.8 6.37 4.81 10.3h2c0.474 1.03 0.949 2.06 1.44 3.12 2.09 4.2 4.53 8.12 7.06 12.1 0.38 0.594 0.759 1.19 1.15 1.8 1.67 2.58 3.38 5.05 5.32 7.44 2.64 3.34 4.81 6.89 7.03 10.5 1.66 2.69 3.33 5.38 5 8.06 0.696 1.12 1.39 2.23 2.11 3.38 1.8 2.85 1.8 2.85 5.14 4.62 0.908 0.66 1.82 1.32 2.75 2 0.375 3.25 0.375 3.25 0 6h-4c-1.67 0.304-3.34 0.631-5 1v-5h-4v-3c-6.29 0.525-6.29 0.525-12 3 0.289 0.516 0.577 1.03 0.875 1.56 1.42 3.07 2.26 6.17 3.12 9.44 0.247 0.887 0.495 1.77 0.75 2.69 0.297 2.75-0.296 4-1.75 6.31-3.89-3.02-6.85-5.46-9-10v-3c-0.99-0.33-1.98-0.66-3-1-1.21-1.75-1.21-1.75-2.38-4-0.427-0.804-0.853-1.61-1.29-2.44-0.44-0.846-0.879-1.69-1.33-2.56-0.889-1.67-1.78-3.34-2.69-5-0.396-0.743-0.791-1.49-1.2-2.25-1-1.91-1-1.91-3.11-2.75-0.8-1.33-1.54-2.69-2.25-4.06-3.64-6.73-8.65-15.4-15.8-18.9-0.495-1.49-0.495-1.49-1-3-2-1.21-2-1.21-4-2 0.33-0.99 0.66-1.98 1-3-0.495-1.49-0.495-1.49-1-3 1.65-0.99 3.3-1.98 5-3 0.33 1.32 0.66 2.64 1 4 0.33-1.65 0.66-3.3 1-5-1.32-0.66-2.64-1.32-4-2 0.33-0.66 0.66-1.32 1-2h-5v-3c-0.66-0.33-1.32-0.66-2-1 3.3-0.33 6.6-0.66 10-1 0.33 0.99 0.66 1.98 1 3 2.02 0.733 2.02 0.733 4 1v7c1.32 0.33 2.64 0.66 4 1-1.98 0.99-1.98 0.99-4 2v3c0.897-0.495 0.897-0.495 1.81-1 2.19-1 2.19-1 5.19-1 2.15-0.95 2.15-0.95 4-2-0.254-1.48-0.529-2.96-0.812-4.44-0.151-0.824-0.302-1.65-0.457-2.5-0.241-0.682-0.482-1.36-0.73-2.07-0.99-0.33-1.98-0.66-3-1 0.165-0.887 0.33-1.77 0.5-2.69-0.113-3.34-0.113-3.34-2.28-4.68-1.47-0.828-2.96-1.62-4.47-2.36-0.577-0.42-1.15-0.84-1.75-1.27v-4c-0.99-0.33-1.98-0.66-3-1 0.33-0.99 0.66-1.98 1-3h3v4c0.66-0.99 1.32-1.98 2-3 0.33 0.33 0.66 0.66 1 1 0.33-1.65 0.66-3.3 1-5z" fill="#299A3B"/>
<path transform="translate(1392 484)" d="m0 0c1.75 1.31 1.75 1.31 2.75 4.31v-3h2c1.44 2.88 1.09 5.42 1.06 8.62-0.00902 1.19-0.018 2.38-0.0273 3.6-0.0116 0.915-0.0232 1.83-0.0352 2.77-0.495-0.99-0.495-0.99-1-2-2.31 0.66-4.62 1.32-7 2v2c2.64 0.33 5.28 0.66 8 1v9c1.98-0.33 3.96-0.66 6-1 0.99 6.43 0.99 6.43 2 13 1.48 0.495 1.48 0.495 3 1v7c-1.65 0.66-3.3 1.32-5 2v6h2v2c-9.93 0.616-9.93 0.616-13.5-1.44-1.8-3.07-2.87-6.13-3.89-9.54-0.564-2.06-0.564-2.06-1.61-4.02 0.33-0.99 0.66-1.98 1-3-4.13-0.943-4.13-0.943-8.25-0.375-2.34 1.84-2.7 3.6-3.75 6.38-2.8 5.43-6.43 8.59-12 11.1-6.58 1.91-14.6 2.36-21-0.391-2.07-1.73-2.07-1.73-2.56-3.77 0.163-1.99 0.326-3.97 0.488-5.96-4.39-1.56-4.39-1.56-9-2-3.08-5.42-3.08-5.42-2.69-8.38 0.227-0.536 0.454-1.07 0.688-1.62 3.46-0.495 3.46-0.495 7-1v-5c-0.99-0.33-1.98-0.66-3-1l-2 1c0.186-0.887 0.371-1.77 0.562-2.69 0.418-3.16 0.245-5.26-0.562-8.31 0.619 0.165 1.24 0.33 1.88 0.5 2.09 0.576 2.09 0.576 4.12 0.5 0.99-1.98 1.98-3.96 3-6h2c-0.0348 1.36-0.0348 1.36-0.0703 2.74-0.018 1.18-0.0361 2.36-0.0547 3.57-0.0232 1.17-0.0464 2.34-0.0703 3.55-0.0579 3.3-0.0579 3.3 2.2 6.14 0.33 0.66 0.66 1.32 1 2 9.4 2.94 18 0.0901 27-3 0.99-0.33 1.98-0.66 3-1v-2c0.66-0.33 1.32-0.66 2-1 0.823-1.79 0.823-1.79 1.47-3.96 0.26-0.8 0.519-1.6 0.787-2.42 0.265-0.841 0.53-1.68 0.803-2.55 0.531-1.66 1.06-3.31 1.6-4.96 0.233-0.737 0.467-1.47 0.707-2.23 0.633-1.86 0.633-1.86 1.63-3.86h2v-2c-0.66-0.33-1.32-0.66-2-1 4.38-2.19 4.38-2.19 7.25-1.31z" fill="#404341"/>
<path transform="translate(656,602)" d="m0 0c2.39 3.83 2.56 7.6 3 12 1.65 0.33 3.3 0.66 5 1v16h-2c0.206 0.536 0.413 1.07 0.625 1.62 0.375 2.38 0.375 2.38-0.625 5-1.15 3.88-0.867 6.48-0.359 10.4 0.429 3.52 0.679 7.03 0.922 10.6 0.0838 1.21 0.168 2.42 0.254 3.66 0.0606 0.895 0.121 1.79 0.184 2.71-0.33-1.32-0.66-2.64-1-4h-2c0.164 0.705 0.327 1.41 0.496 2.14 0.521 2.96 0.603 5.67 0.566 8.68-0.00902 0.976-0.018 1.95-0.0273 2.96-0.0116 0.736-0.0232 1.47-0.0352 2.23h1v8c-0.99 0.495-0.99 0.495-2 1 0.33 2.97 0.66 5.94 1 9h2c0.162 9.27 0.162 9.27-0.625 12.8-0.59 2.28-0.59 2.28 0.625 4.62 1.28 3.28 0.97 5.21 0 8.56-1.49 0.99-1.49 0.99-3 2-0.33-0.33-0.66-0.66-1-1v5h-4v7c3.63 0.99 7.26 1.98 11 3-0.495 0.99-0.495 0.99-1 2 5.26-0.385 5.26-0.385 10.1-2.12 2.79-1.3 4.95-0.539 7.88 0.125 0.33-0.99 0.66-1.98 1-3 2.06-0.688 2.06-0.688 4-1-0.66-0.33-1.32-0.66-2-1 1.44-0.196 2.87-0.381 4.31-0.562 0.801-0.104 1.6-0.209 2.43-0.316 2.26-0.121 2.26-0.121 5.26 0.879 2.06-0.0965 2.06-0.0965 4.25-0.438 3.97-0.506 7.76-0.647 11.8-0.562-0.33-0.66-0.66-1.32-1-2-0.742 0.186-1.49 0.371-2.25 0.562-2.75 0.438-4.2 0.493-6.75-0.562-0.66-0.99-1.32-1.98-2-3 2.04-0.0545 4.08-0.093 6.12-0.125 1.14-0.0232 2.27-0.0464 3.45-0.0703 3.5 0.199 6.15 1 9.43 2.2 2.75 0.169 2.75 0.169 5 0 0.66-1.98 1.32-3.96 2-6h6c-0.25 2.38-0.25 2.38-1 5-2 1.19-2 1.19-4 2-0.33 0.66-0.66 1.32-1 2 2.31-0.33 4.62-0.66 7-1-0.33 0.66-0.66 1.32-1 2 1.49 0.99 1.49 0.99 3 2v-2c4-4 4-4 7.12-4.12 0.949 0.0412 1.9 0.0825 2.88 0.125v5c1.32 0.33 2.64 0.66 4 1-3.49 5.24-10.7 6.11-16.6 7.52-6.72 1.34-13.5 1.23-20.4 1.22-1.65 0.0157-3.3 0.0334-4.95 0.053-3.42 0.0359-6.83 0.0566-10.3 0.0642-4.38 0.00977-8.76 0.0455-13.1 0.0907-4.2 0.0427-8.4 0.0748-12.6 0.105-0.797 0.00616-1.59 0.0123-2.41 0.0187-2.24 0.015-4.49 0.0227-6.73 0.0277-1.27 0.0049-2.55 0.00981-3.86 0.0149-3.09-0.116-3.09-0.116-6.09-1.12-3.33-4.99-3.42-9.3-3.36-15.1-0.00204-0.896-0.00409-1.79-0.0062-2.71-0.00301-2.96 0.0155-5.93 0.0345-8.89 0.00306-2.09 0.00494-4.18 0.00568-6.27 0.00461-4.4 0.019-8.79 0.0412-13.2 0.0278-5.54 0.0391-11.1 0.0438-16.6 0.0178-19 0.064-38.1 0.573-57.1 0.0534-2 0.0996-4.01 0.146-6.01 0.0375-1.17 0.075-2.34 0.114-3.55 0.0298-1 0.0597-2 0.0904-3.03 0.323-2.67 0.868-4.35 2.31-6.6 0.66-0.33 1.32-0.66 2-1z" fill="#299A3B"/>
<path transform="translate(320 470)" d="m0 0c2.15 1.89 2.95 3.11 4 5.75 0.536 0.928 1.07 1.86 1.62 2.81 1.61 3.74 1.82 6.15 1.38 10.2-1.93 4.61-4.72 6.55-9 9-2.7 0.717-5.42 1.04-8.19 1.38-8.41 1.24-15.8 3.61-22 9.82-1.83 1.81-1.83 1.81-3.83 1.81-0.227 0.701-0.454 1.4-0.688 2.12-2.14 4.69-4.61 8.06-9.31 10.3-5.56 1.04-9.11-0.821-14-3.44v-2c-0.99-0.33-1.98-0.66-3-1-1.03-3.09-1.13-5.27-1.12-8.5-0.00258-0.959-0.00516-1.92-0.00781-2.91 0.133-2.59 0.133-2.59 1.13-5.59h3c0.227-0.701 0.454-1.4 0.688-2.12 4.41-9.66 14.9-17.4 24.3-21.9 3.16-1.12 6.32-2.17 9.52-3.17 2.39-0.599 2.39-0.599 3.48-1.83 7-2.19 15.1-3.64 22-0.75z" fill="#219139"/>
<path transform="translate(832 589)" d="m0 0c2.04-0.0097 4.08-0.0407 6.12-0.0723 1.29-0.00516 2.57-0.0103 3.9-0.0156 1.77-0.014 1.77-0.014 3.58-0.0283 3.35 0.388 4.68 1.04 7.08 3.36 1 1.75 1 1.75 2 4 1.05 1.58 1.05 1.58 2.12 3.19 2.45 4.18 2.26 8.09 1.88 12.8-0.66-0.33-1.32-0.66-2-1l-2 1c-0.66-0.99-1.32-1.98-2-3-0.33 0.66-0.66 1.32-1 2 0.66 0.33 1.32 0.66 2 1 0.227 0.784 0.454 1.57 0.688 2.38 1.93 3.86 4.31 4.22 8.31 5.62-0.33 2.31-0.66 4.62-1 7 1.32 0.33 2.64 0.66 4 1 0.049 0.638 0.098 1.28 0.148 1.93 0.0748 0.826 0.15 1.65 0.227 2.5 0.0696 0.824 0.139 1.65 0.211 2.5 0.205 1.02 0.205 1.02 0.414 2.07l2 1c-1.27 0.506-2.54 1-3.81 1.5-0.708 0.278-1.42 0.557-2.14 0.844-2.4 0.771-4.54 0.656-7.04 0.656v-3c0.99-0.66 1.98-1.32 3-2-0.99-0.33-1.98-0.66-3-1-0.0825-0.949-0.165-1.9-0.25-2.88-0.388-3.22-0.388-3.22-2.75-4.38-0.66-0.247-1.32-0.495-2-0.75-0.33-0.66-0.66-1.32-1-2-3.47 0.495-3.47 0.495-7 1 2.36 2.36 3.78 2.49 7 3-0.66 0.66-1.32 1.32-2 2h3c0.625 2.81 0.625 2.81 1 6-0.66 0.99-1.32 1.98-2 3l-2-1v-4c-1.11 0.186-2.23 0.371-3.38 0.562-3.62 0.438-3.62 0.438-5.62-0.562-0.103 0.619-0.206 1.24-0.312 1.88-0.688 2.12-0.688 2.12-3.69 4.12 0.937 2.94 0.937 2.94 2.06 5.5 0.938 2.5 0.938 2.5 0.938 5.5h-6c0.33-0.99 0.66-1.98 1-3h-4c-0.495 2.48-0.495 2.48-1 5h-7c-0.33 1.65-0.66 3.3-1 5h-1v-16c0.33 0.66 0.66 1.32 1 2 3.47-0.495 3.47-0.495 7-1v-2h-3v-2h4c-0.33-1.98-0.66-3.96-1-6-0.33 1.32-0.66 2.64-1 4-0.99-0.33-1.98-0.66-3-1 0.0348-1.29 0.0348-1.29 0.0703-2.6 0.0983-6.23-0.0462-11.4-2.07-17.4-0.339-2.33-0.673-4.67-1-7-0.33-0.33-0.66-0.66-1-1-0.144-1.13-0.289-2.27-0.438-3.44-0.211-3.6-0.211-3.6-2.56-5.56-1.16-3.3-1.22-4.54 0.312-7.75 3.78-5.05 10.2-3.47 16-3.49z" fill="#229239"/>
<path transform="translate(747,597)" d="m0 0c5.89 0.271 10.8 1.72 15 6 1.45 1.62 2.87 3.26 4.25 4.94 2.78 3.28 5.75 6.39 8.7 9.53 3.75 4.62 5.76 10.1 8.05 15.5 0.492 1.04 0.985 2.08 1.49 3.15 1.81 4.21 2.47 8.46 3.13 13 0.242 1.57 0.484 3.13 0.727 4.7 0.11 0.732 0.22 1.46 0.334 2.22 0.248 1.55 0.557 3.08 0.889 4.61 0.536 2.95 0.596 5.78 0.613 8.79 0.0142 1.09 0.0284 2.18 0.043 3.31-0.242 3.41-1.1 6.04-2.23 9.25-0.332 2.08-0.623 4.16-0.875 6.25-0.86 6.04-2.56 11.2-5.12 16.8-0.33-0.99-0.66-1.98-1-3-0.99-0.33-1.98-0.66-3-1v-2h4c-0.474-0.351-0.949-0.701-1.44-1.06-2.24-2.78-2.23-5.45-2.56-8.94 0.66-0.33 1.32-0.66 2-1v-5c-0.99 0.495-0.99 0.495-2 1-0.144-1.22-0.289-2.43-0.438-3.69-0.39-3.14-0.886-6.22-1.56-9.31-2.64-0.33-5.28-0.66-8-1-0.33 0.66-0.66 1.32-1 2v-2h-9c-0.33 1.32-0.66 2.64-1 4h-2c-0.33-0.66-0.66-1.32-1-2-0.33 2.64-0.66 5.28-1 8h-1c-0.0449-0.76-0.0898-1.52-0.136-2.3-0.214-3.5-0.445-7.01-0.677-10.5-0.0703-1.2-0.141-2.39-0.213-3.62-0.512-7.52-1.66-14.4-3.97-21.6h2c0.33-1.32 0.66-2.64 1-4 0.66 0.33 1.32 0.66 2 1v5h2c0.124 0.804 0.247 1.61 0.375 2.44 0.206 0.846 0.413 1.69 0.625 2.56 2.87 1.44 5.91 2.14 9 3 0.33-0.99 0.66-1.98 1-3h2v-2c6.62-1.12 6.62-1.12 10 0 0.178-3.91 0.207-6.69-2-10-0.66-0.33-1.32-0.66-2-1-1.12-2.06-1.12-2.06-2-4h-1c-0.495-2.48-0.495-2.48-1-5-3.13-1.04-3.99-0.934-7 0v-5c-2.31-0.66-4.62-1.32-7-2v-2h-2v2c-0.99-0.33-1.98-0.66-3-1 0.66-0.33 1.32-0.66 2-1v-2h-9v-8h2v-2c2.65-1.08 5.28-2.09 8-3-2.64-1.32-5.28-2.64-8-4l2-2z" fill="#29993B"/>
<path transform="translate(476 717)" d="m0 0c1.48 0.00424 1.48 0.00424 2.99 0.00858 3.13 0.0111 6.26 0.0362 9.38 0.0617 2.13 0.01 4.26 0.0192 6.39 0.0273 5.2 0.022 10.4 0.0553 15.6 0.0977v1c-3.3 0.66-6.6 1.32-10 2 0.495 0.99 0.495 0.99 1 2 3.19 0.298 6.34 0.416 9.54 0.479 1.83 0.0725 3.65 0.289 5.46 0.521 2 3 2 3 2 6h-3c-0.33 2.64-0.66 5.28-1 8 1.49 0.495 1.49 0.495 3 1 0.75 1.94 0.75 1.94 1 4-0.33 0.66-0.66 1.32-1 2h-60v-2h-3v-4c-0.99-0.33-1.98-0.66-3-1-1.74-3.48-0.734-7.28 0-11 1.68-3.6 2.66-4.78 6-7 6.3-1.99 12-2.27 18.6-2.2z" fill="#404040"/>
<path transform="translate(826,415)" d="m0 0c0.33 0.99 0.66 1.98 1 3h2c0.775 10.4 1.1 20.7 0.957 31.2-0.0121 1.39-0.0231 2.78-0.033 4.16-0.042 5.8-0.0906 11.6-0.171 17.4-0.0488 3.58-0.0776 7.17-0.0937 10.8-0.0145 2-0.0504 3.99-0.087 5.99-0.021 7.31 0.331 14.2 4.43 20.5 1.49 0.495 1.49 0.495 3 1v2c0.969 0.144 1.94 0.289 2.94 0.438 3.06 0.562 3.06 0.562 4.06 1.56 2.69 0.237 5.36 0.422 8.06 0.562 1.14 0.0648 1.14 0.0648 2.3 0.131 1.88 0.106 3.76 0.207 5.64 0.307-0.66 0.66-1.32 1.32-2 2 1.09 3.25 1.09 3.25 3 6 0.33 0.66 0.66 1.32 1 2 0.99 0.495 0.99 0.495 2 1v2c-4.51 4.34-8.62 7.52-15 8-0.33 0.66-0.66 1.32-1 2-1.65-0.66-3.3-1.32-5-2 0.66-0.66 1.32-1.32 2-2-2.64-0.33-5.28-0.66-8-1v2c-16.9-4.88-16.9-4.88-20-8-0.99-0.66-1.98-1.32-3-2-0.0655-1.96-0.118-3.93-0.0469-5.89 0.0626-2.81-0.287-5.38-0.953-8.11-0.66-0.33-1.32-0.66-2-1-0.484-2.43-0.484-2.43-0.75-5.44-0.098-0.989-0.196-1.98-0.297-3 0.0469-2.57 0.0469-2.57 2.05-4.57 3.12-0.125 3.12-0.125 6 0v6h8c2.37-26.8 2.38-54.6-3-81-3.3-0.33-6.6-0.66-10-1-0.33-0.99-0.66-1.98-1-3 4.87-1.59 8.81-2.21 14-2z" fill="#424443"/>
<path transform="translate(307,509)" d="m0 0c19-1.06 19-1.06 26 5 1.13 2.49 1.13 2.49 2 5 0.66 0.99 1.32 1.98 2 3 2.86 4.29 4.57 7.77 4 13-2.45 2.45-3.12 2.26-6.48 2.29-0.928 0.0128-1.86 0.0255-2.81 0.0387-1.51 0.00334-1.51 0.00334-3.05 0.00674-1.55 0.00999-1.55 0.00999-3.12 0.0202-2.18 0.0101-4.37 0.0148-6.55 0.0145-3.34 0.00437-6.68 0.0407-10 0.0786-2.12 0.00587-4.24 0.00984-6.36 0.0117-1.5 0.0216-1.5 0.0216-3.03 0.0435-6.92-0.0456-6.92-0.0456-10.2-2.35-1.4-2.16-1.4-2.16-2.4-5.16 1.29-2.63 1.29-2.63 3.19-5.56 0.918-1.46 0.918-1.46 1.86-2.94 1.94-2.48 3.14-3.28 5.96-4.5 0.699-1.32 1.37-2.65 2-4 3-2 3-2 7-2v-2z" fill="#29993B"/>
<path transform="translate(457,509)" d="m0 0c19-1.06 19-1.06 26 5 1.13 2.52 1.13 2.52 2 5 0.66 0.825 1.32 1.65 2 2.5 3.5 4.38 4.37 7.92 4 13.5-0.33 0.66-0.66 1.32-1 2-6.78 0.101-13.6 0.171-20.3 0.22-2.31 0.0201-4.62 0.0474-6.92 0.082-3.31 0.0484-6.63 0.0712-9.94 0.0889-1.03 0.0206-2.07 0.0413-3.13 0.0626-1.44 4.53e-4 -1.44 4.53e-4 -2.91 9.16e-4 -0.846 0.00888-1.69 0.0178-2.56 0.0269-2.18-0.481-2.18-0.481-3.99-2.36-1.19-2.12-1.19-2.12-1-4.5 0.895-2.89 1.82-5.77 2.81-8.62h2c0.0864-0.583 0.173-1.17 0.262-1.77 0.943-2.85 2.29-4.02 4.55-5.98 0.687-0.614 1.37-1.23 2.08-1.86 2.11-1.39 2.11-1.39 6.11-1.39v-2z" fill="#299A3B"/>
<path transform="translate(719 610)" d="m0 0c2.5 0.561 4.4 0.0767 6.85-0.586 1.67-0.037 3.33-0.0476 5 0 0.124 0.804 0.247 1.61 0.375 2.44 0.206 0.846 0.413 1.69 0.625 2.56 0.66 0.33 1.32 0.66 2 1v6h-3v2h11c0.495 1.98 0.495 1.98 1 4 0.99 0.33 1.98 0.66 3 1 0.73 2.07 0.73 2.07 1.19 4.56 0.159 0.826 0.317 1.65 0.48 2.5 0.11 0.638 0.219 1.28 0.332 1.93-3.88-1.75-3.88-1.75-5-4-0.887-0.289-1.77-0.577-2.69-0.875-3.31-1.12-3.31-1.12-6.12-3.12-8.1-5.08-17.8-4.34-27.1-4.31-1.32-0.0161-2.63-0.0322-3.99-0.0488-1.26-6.45e-4 -2.52-0.00129-3.81-0.00195-1.14-0.00298-2.28-0.00596-3.46-0.00903-2.78 0.158-2.78 0.158-4.52 1.42-2.07 3-1.75 6.09-1.72 9.61-0.00365 0.778-0.0073 1.56-0.0111 2.36-0.00811 2.57 0.00551 5.14 0.0201 7.71 5.19e-4 1.78 1.19e-6 3.57-0.00151 5.35 8.97e-5 3.74 0.0105 7.48 0.0286 11.2 0.0227 4.8 0.0232 9.6 0.0165 14.4-0.00334 3.68 0.00328 7.37 0.0131 11.1 0.00386 1.77 5e-3 3.54 0.00341 5.31-3.7e-4 2.47 0.0122 4.94 0.0285 7.41-0.00248 0.736-0.00495 1.47-0.00751 2.23-0.0795 4.1-0.0795 4.1 2.28 7.29 1.52 0.598 3.07 1.14 4.62 1.62 0.817 0.26 1.63 0.521 2.48 0.789 0.626 0.193 1.25 0.387 1.9 0.586-1.18 3.55-2.01 4.75-5 7-2.99 0.629-5.95 0.87-9 1l-2-6c1.49-0.99 1.49-0.99 3-2-2.46-2.46-4.71-3-8-4 0.33-0.99 0.66-1.98 1-3h2c0.33-1.32 0.66-2.64 1-4h2c-0.119-5.94-0.243-11.9-0.372-17.8-0.0431-2.02-0.0848-4.03-0.125-6.05-0.0584-2.91-0.122-5.83-0.186-8.74-0.0167-0.889-0.0334-1.78-0.0506-2.69-0.121-5.21-0.469-10.3-1.05-15.5-0.292-2.96-0.273-5.89-0.214-8.86 0.0504-3.57 0.0105-6.82-0.75-10.3-0.25-3-0.25-3 1.56-5.88 2.96-2.87 3.6-3.11 7.81-3.19 1.11 0.0206 2.23 0.0412 3.38 0.0625 0.33-1.32 0.66-2.64 1-4 4.46-0.495 4.46-0.495 9-1v-2c-2.31 0.33-4.62 0.66-7 1-0.553-2.08-1-3.84-1-6 13.6-3.59 13.6-3.59 21.2-1.41z" fill="#299A3B"/>
<path transform="translate(1392 484)" d="m0 0c1.75 1.31 1.75 1.31 2.75 4.31v-3h2c1.44 2.88 1.09 5.42 1.06 8.62-0.00902 1.19-0.018 2.38-0.0273 3.6-0.0116 0.915-0.0232 1.83-0.0352 2.77-0.33-0.66-0.66-1.32-1-2-2.31 0.66-4.62 1.32-7 2v2c2.64 0.33 5.28 0.66 8 1v9c1.98-0.33 3.96-0.66 6-1 0.66 4.29 1.32 8.58 2 13 1.48 0.495 1.48 0.495 3 1v7c-1.65 0.66-3.3 1.32-5 2v6h2v2c-9.93 0.616-9.93 0.616-13.5-1.44-1.8-3.07-2.87-6.13-3.89-9.54-0.564-2.06-0.564-2.06-1.61-4.02 0.33-0.99 0.66-1.98 1-3-2.31-0.33-4.62-0.66-7-1v-3c0.99-0.495 0.99-0.495 2-1v-3c-0.99-0.66-1.98-1.32-3-2h2v-2c-1.98 0.66-3.96 1.32-6 2 2.6-8.85 5.23-17.6 9-26h2v-2c-0.66-0.33-1.32-0.66-2-1 4.38-2.19 4.38-2.19 7.25-1.31z" fill="#424443"/>
<path transform="translate(1036 504)" d="m0 0 2.75 0.688v3c0.495 0.495 0.495 0.495 1 1 1.2 2.2 2.36 4.4 3.5 6.62 0.321 0.605 0.642 1.21 0.973 1.83 2.11 4.15 3.3 7.81 3.53 12.5-2.05 3.07-2.5 3.48-5.7 4.75-0.733 0.297-1.47 0.594-2.22 0.9-0.767 0.3-1.53 0.599-2.32 0.908-1.13 0.455-1.13 0.455-2.28 0.92-11.6 4.65-11.6 4.65-17.9 5.08-4.23 0.323-8.37 0.786-12.6 1.44v-2c1.65-0.66 3.3-1.32 5-2 1.08-6.31 0.756-10.9-1-17 1-1 1-1 3.29-1.1 1.37 0.0174 1.37 0.0174 2.78 0.0352 0.919 0.00902 1.84 0.018 2.79 0.0273 0.71 0.0116 1.42 0.0232 2.15 0.0352 0.33-0.66 0.66-1.32 1-2h4v-3c3.3 0.33 6.6 0.66 10 1v-7h-2c-0.33 0.66-0.66 1.32-1 2v-2c-0.687 0.361-1.37 0.722-2.08 1.09-0.901 0.464-1.8 0.928-2.73 1.41-0.893 0.464-1.79 0.928-2.71 1.41-2.48 1.09-2.48 1.09-5.48 1.09v2c-3.3 0.33-6.6 0.66-10 1 3.32-4.77 5.27-6.45 10.9-7.51 4.24-1.01 7.86-3.44 11.1-6.3 1.94-1.19 1.94-1.19 5.19-0.875z" fill="#424443"/>
<path transform="translate(552,635)" d="m0 0c5.65 4.55 6.22 10 7 17 0.227 5.64 0.169 11.3 0.082 16.9-0.0186 1.61-0.0367 3.22-0.0543 4.83-0.0392 3.35-0.0865 6.71-0.139 10.1-0.0667 4.3-0.11 8.59-0.147 12.9-0.0317 3.32-0.0771 6.63-0.126 9.95-0.0217 1.58-0.0388 3.17-0.0512 4.75-0.019 2.21-0.0568 4.42-0.0994 6.63-0.0171 1.25-0.0343 2.51-0.0519 3.8-0.412 3.18-0.412 3.18-3.41 7.18 0.33-20.1 0.66-40.3 1-61-0.66-0.33-1.32-0.66-2-1 0.309-1.42 0.309-1.42 0.625-2.88 0.124-1.03 0.247-2.06 0.375-3.12l-2-2c-0.66 0.33-1.32 0.66-2 1-0.658 3.03-0.658 3.03-1 6-3 1-3 1-6 0-0.99 0.66-1.98 1.32-3 2-0.66-2.31-1.32-4.62-2-7-1.56 1.26-1.56 1.26-3 3-0.197 2.95-0.23 5.69-0.125 8.62 0.0329 1.71 0.0615 3.41 0.0859 5.12 0.0126 0.869 0.0251 1.74 0.0381 2.63 0.00153 4.11-0.231 8.21-0.499 12.3-0.0479 0.736-0.0957 1.47-0.145 2.23-0.114 1.69-0.234 3.39-0.355 5.08-0.99 0.495-0.99 0.495-2 1-0.0289-3.96-0.0468-7.92-0.0625-11.9-0.00838-1.13-0.0168-2.26-0.0254-3.42-0.00483-1.61-0.00483-1.61-0.00977-3.26-0.00524-0.995-0.0105-1.99-0.0159-3.02 0.114-2.43 0.114-2.43 1.11-4.43h-2c-0.117-3.98-0.188-7.96-0.25-11.9-0.0503-1.68-0.0503-1.68-0.102-3.38-0.0986-8.4 1.57-14 5.79-21.1 3.83-3.83 9.38-4.71 14.6-3.56z" fill="#414342"/>
<path transform="translate(1016,591)" d="m0 0c1.16 2.32 1.15 3.73 1.21 6.31 0.0199 0.912 0.0399 1.82 0.0604 2.76 0.0167 1.01 0.0334 2.02 0.0507 3.06 0.0209 1.07 0.0417 2.15 0.0632 3.25 0.0673 3.62 0.126 7.24 0.183 10.9 0.0208 1.25 0.0417 2.49 0.0632 3.78 0.378 23.1 0.483 46.2 0.497 69.2 0.00206 2.6 0.00582 5.2 0.00991 7.79 0.0059 4.14 0.00597 8.27 0.00154 12.4-0.00103 1.53-5.01e-4 3.05 0.00176 4.58 0.022 17.9 0.022 17.9-1.14 25.9-2.64 2.64-9.87 1.59-13.4 1.75-1.17 0.0683-2.34 0.137-3.55 0.207-1.12 0.0503-2.23 0.101-3.38 0.152-1.03 0.0512-2.06 0.102-3.12 0.155-0.827-0.0873-1.65-0.175-2.51-0.265-0.66-0.99-1.32-1.98-2-3-2.56-0.73-2.56-0.73-5-1 0.66-0.99 1.32-1.98 2-3 2.62-0.188 2.62-0.188 5 0 0.495-0.99 0.495-0.99 1-2h4c0.268-0.639 0.536-1.28 0.812-1.94 1.19-2.06 1.19-2.06 4.19-3.06 0.33-0.66 0.66-1.32 1-2 1.13 0.186 2.27 0.371 3.44 0.562 1.18 0.144 2.35 0.289 3.56 0.438 1.57-1.57 1.61-3.43 2.06-5.56 0.265-1.24 0.265-1.24 0.535-2.5 0.133-0.638 0.266-1.28 0.402-1.93h2c0.273-44 0.273-44-0.438-87.9-0.0392-1.31-0.0785-2.61-0.119-3.96-0.194-5.54-0.503-11-1.01-16.6-0.372-4.18-0.448-8.11 0-12.3 0.102-1.01 0.204-2.01 0.309-3.05 0.0838-0.727 0.168-1.45 0.254-2.2h-2c-0.33 0.66-0.66 1.32-1 2-0.33-0.99-0.66-1.98-1-3 2.7-1.35 4.15-0.803 7 0z" fill="#299A3B"/>
<path transform="translate(1261,455)" d="m0 0h1c-0.0111 0.67-0.0222 1.34-0.0336 2.03-0.11 6.96-0.186 13.9-0.241 20.9-0.0252 2.6-0.0593 5.2-0.103 7.8-0.0605 3.73-0.089 7.46-0.111 11.2-0.0258 1.17-0.0516 2.33-0.0782 3.53-3.78e-4 1.08-7.55e-4 2.16-0.00114 3.28-0.0111 0.953-0.0222 1.91-0.0336 2.89 0.391 2.65 0.391 2.65 3 4.21 7.66 3.53 17.4 2.32 25.6 2.2 0.124 0.619 0.247 1.24 0.375 1.88 0.497 2.32 0.497 2.32 2.62 4.12 0.173 2.83 0.232 5.55 0.188 8.38-6.45e-4 0.768-0.00129 1.54-0.00195 2.33-0.0282 3.62-0.204 6.79-1.19 10.3h-2v-3h-3c-0.826-2.89-1-4.89-1-8-1.67 0.0309-1.67 0.0309-3.38 0.0625-3.62-0.0625-3.62-0.0625-5.62-1.06-0.516 0.681-1.03 1.36-1.56 2.06-2.44 1.94-2.44 1.94-6.19 1.69-1.61-0.371-1.61-0.371-3.25-0.75-1-3-1-3-0.0625-5.19 0.351-0.598 0.701-1.2 1.06-1.81-0.66-0.33-1.32-0.66-2-1h2v-3c-1.08-0.371-1.08-0.371-2.19-0.75-4.15-1.84-6.97-3.72-9.19-7.75-0.586-3.28-0.54-5.55-0.223-8.83 0.418-4.57 0.773-9.13 1.06-13.7 0.078-1.17 0.156-2.35 0.236-3.56 0.16-2.43 0.314-4.86 0.461-7.3 0.0793-1.16 0.159-2.32 0.24-3.52 0.067-1.05 0.134-2.1 0.203-3.18 0.195-1.19 0.195-1.19 0.395-2.4 0.66-0.33 1.32-0.66 2-1 0.47-3.05 0.47-3.05 0.625-6.56 0.0748-1.2 0.15-2.4 0.227-3.63 0.049-0.927 0.098-1.85 0.148-2.81zm29 63 1 4z" fill="#3E4440"/>
<path transform="translate(402,526)" d="m0 0c1.56 1.56 1.56 1.56 3 4-0.312 3.75-0.312 3.75-1 7h2c0.652 4.72 1.12 9.22 1 14 1.32 0.33 2.64 0.66 4 1 0.33 1.65 0.66 3.3 1 5-0.99 0.33-1.98 0.66-3 1-0.33 0.66-0.66 1.32-1 2h-2c0.00524 0.843 0.0105 1.69 0.0159 2.55 0.017 3.12 0.0296 6.24 0.0391 9.35 0.00504 1.35 0.0119 2.7 0.0205 4.05 0.0121 1.94 0.0173 3.88 0.0222 5.82 0.00524 1.17 0.0105 2.34 0.0159 3.54-0.114 2.68-0.114 2.68-1.11 3.68-0.0628 1.6-0.0594 3.2-0.0273 4.8 0.0122 0.976 0.0245 1.95 0.0371 2.96 0.035 2.07 0.0741 4.14 0.117 6.2 0.011 0.978 0.0219 1.96 0.0332 2.96 0.0168 0.9 0.0337 1.8 0.051 2.73-0.211 2.34-0.211 2.34-2.21 5.34 0.33 0.33 0.66 0.66 1 1-0.0508 2-0.0508 2-0.312 4.44-0.0786 0.803-0.157 1.61-0.238 2.43-0.449 2.13-0.449 2.13-2.45 4.13v-2h-2c-0.798-9.03-1.19-18-1.32-27.1-0.0208-1.29-0.0416-2.58-0.063-3.92-0.0545-3.4-0.104-6.79-0.153-10.2-0.0404-2.76-0.0843-5.52-0.128-8.28-0.661-41.5-0.661-41.5 2.66-47.5 0.66-0.33 1.32-0.66 2-1z" fill="#299A3B"/>
<path transform="translate(906,424)" d="m0 0h1c0.994 14.2 1.36 28.4 1.62 42.7 0.0228 1.19 0.0456 2.37 0.0691 3.59 0.443 23.9 0.0746 47.8-0.694 71.7-3.58 0.116-7.17 0.187-10.8 0.25-1.02 0.0335-2.03 0.067-3.08 0.102-7.53 0.0991-7.53 0.0991-10.8-2.23-1.5-2.39-1.82-3.82-1.89-6.62-0.244-3.7-0.721-5.78-3.44-8.5l2-2 1-2h2c-0.0206-0.969-0.0412-1.94-0.0625-2.94 0.0625-3.06 0.0625-3.06 1.06-4.06 1.67-0.0406 3.33-0.0427 5 0 0.0765 4.52 0.102 8.59-1 13h4v2h2c0.99-2.97 1.98-5.94 3-9 3.47-0.495 3.47-0.495 7-1 1.42-4.26 1.39-8.4 1.56-12.9 0.0417-1.06 0.0835-2.11 0.126-3.2 0.393-11.6 0.422-23.3 0.436-34.9 0.00259-0.96 0.00518-1.92 0.00784-2.91 0.0218-10.3-0.0408-20.5-0.871-30.7-0.274-3.66-0.182-6.81 0.738-10.4z" fill="#404040"/>
<path transform="translate(534,715)" d="m0 0 1 2c-0.938 2.12-0.938 2.12-2 4h-3c1.07 1.3 1.07 1.3 3.56 1.06 0.804-0.0206 1.61-0.0412 2.44-0.0625-0.66 0.33-1.32 0.66-2 1v2h6v2c1.32 0.33 2.64 0.66 4 1 0.812 3.25 0.812 3.25 1 7-3.86 5.15-11 5.74-17 7l2 2h-13v-3l-2-2 1-1c-0.66-0.33-1.32-0.66-2-1-0.188-2.81-0.188-2.81 0-6 0.98-1.02 1.98-2.02 3-3-0.33-1.32-0.66-2.64-1-4-5.28-0.33-10.6-0.66-16-1-0.33-0.99-0.66-1.98-1-3 2.99-1.71 5.2-2.26 8.63-2.34 1.33-0.0445 1.33-0.0445 2.7-0.0898 0.923-0.0219 1.85-0.0438 2.8-0.0664 7.17-0.175 13.9-0.872 20.9-2.5z" fill="#404241"/>
<path transform="translate(947,592)" d="m0 0h1v149c-6.41 3.21-6.41 3.21-12 2-5.44-0.289-10.6 0.0873-16 1 0.66-0.33 1.32-0.66 2-1v-2h-3c1.15-2.47 2.05-4.05 4-6 2.12-0.625 2.12-0.625 4-1v-5c1.99-0.228 3.97-0.456 5.96-0.684 2.24-0.288 2.24-0.288 5.04-1.32v-2c1.98-0.33 3.96-0.66 6-1 0.144-1.13 0.289-2.27 0.438-3.44 0.562-3.56 0.562-3.56 1.56-4.56 0.0982-1.66 0.13-3.33 0.125-5 0.00258-0.908 0.00516-1.82 0.00781-2.75 0.119-2.22 0.119-2.22-1.13-3.25-0.0986-1.58-0.128-3.17-0.129-4.76-0.00315-1.02-0.0063-2.03-0.00955-3.08 0.00202-1.11 0.00405-2.21 0.00613-3.36-0.00144-1.7-0.00144-1.7-0.0029-3.44-6.82e-4 -2.41 0.00118-4.82 0.00534-7.23 0.00531-3.67 7.5e-5 -7.34-0.00635-11 6.61e-4 -2.34 0.00194-4.68 0.00391-7.02-0.00202-1.09-0.00405-2.19-0.00613-3.31 0.0132-4.35 0.0338-8.61 0.643-12.9 0.608-4.77 0.602-9.43 0.558-14.2-0.00379-0.969-0.00757-1.94-0.0115-2.93-0.0121-3.07-0.0308-6.15-0.051-9.22-0.0267-4.05-0.0467-8.1-0.0625-12.2-0.0083-0.918-0.0166-1.84-0.0251-2.78-0.02-5.29 0.314-10.3 1.09-15.6z" fill="#299A3B"/>
<path transform="translate(262 388)" d="m0 0c1.15-0.0057 2.29-0.0114 3.47-0.0173 2.41-0.00939 4.81-0.016 7.22-0.0198 3.67-0.00976 7.35-0.0409 11-0.0723 2.35-0.00653 4.69-0.0118 7.04-0.0156 1.64-0.0185 1.64-0.0185 3.31-0.0374 7.17 0.0209 12.3 0.642 18 5.3 2.9 3.68 2.97 7.31 2.91 12-0.565 4.16-2.54 7.76-5.91 10.3-3.6 1.14-6.97 0.437-10.6-0.125-0.745-0.104-1.49-0.209-2.26-0.316-1.83-0.258-3.66-0.532-5.49-0.809v-2h2c-0.66-0.99-1.32-1.98-2-3 0.375-3.19 0.375-3.19 1-6-0.66-0.33-1.32-0.66-2-1v-2c4.29-0.66 8.58-1.32 13-2v-2c-0.66-0.33-1.32-0.66-2-1h2c-0.495-1.49-0.495-1.49-1-3-1.91-0.0376-1.91-0.0376-3.86-0.0759-4.81-0.0955-9.62-0.195-14.4-0.296-2.07-0.0428-4.13-0.0845-6.2-0.125-12.5-0.246-25-0.642-37.5-1.5v-1c7.45-0.899 14.8-1.17 22.3-1.2z" fill="#424443"/>
<path transform="translate(695,430)" d="m0 0 2 1c-0.375 0.51-0.75 1.02-1.14 1.55-7.18 10.2-14.3 24.6-12.9 37.5 0.648 2.04 1.4 4 2.22 5.98 0.777 2.02 0.777 2.02 1.59 5.77 1.49 6.11 3.92 13.6 8.94 17.7 1.87 0.935 1.87 0.935 3.88 1.66 3.14 1.23 5.95 2.87 8.87 4.55 1.56 0.886 1.56 0.886 3.16 1.79 0.773 0.523 1.55 1.05 2.34 1.59v2c1.32 0.33 2.64 0.66 4 1-2.48 0.495-2.48 0.495-5 1v-2c-1.3-0.144-2.6-0.289-3.94-0.438-4.69-0.521-9.38-1.04-14.1-1.56v4c-2.97 0.495-2.97 0.495-6 1-1.12-3.75-1.12-3.75 0-6-1.49 0.495-1.49 0.495-3 1v-3c1.49-0.495 1.49-0.495 3-1v-4c-0.949-0.536-1.9-1.07-2.88-1.62-3.53-2.68-3.64-3.29-4.38-7.44-0.108-0.857-0.217-1.71-0.328-2.6-0.309-2.6-0.309-2.6-2.42-5.34-0.125-2.69-0.125-2.69 0-5h2c-0.33-1.65-0.66-3.3-1-5-1.49 2.48-1.49 2.48-3 5-1.06-1.88-1.06-1.88-2-4 0.33-0.66 0.66-1.32 1-2-2.97-0.66-5.94-1.32-9-2-0.33 0.99-0.66 1.98-1 3h-1v-5c0.639-0.289 1.28-0.577 1.94-0.875 2.21-0.953 2.21-0.953 3.06-3.12h2c0.495-0.66 0.99-1.32 1.5-2 0.495-0.66 0.99-1.32 1.5-2h2c0.33 0.99 0.66 1.98 1 3 2.48-2.59 3.28-4.82 3.94-8.25 0.787-4.01 2.12-7.17 4.04-10.8 1.65-3.22 2.8-6.59 4.02-10h2c0.124-0.639 0.247-1.28 0.375-1.94 0.309-1.02 0.309-1.02 0.625-2.06l2-1z" fill="#404141"/>
<path transform="translate(824,684)" d="m0 0h2v2h2c0.33-0.66 0.66-1.32 1-2 0.66 0.33 1.32 0.66 2 1-0.33 1.32-0.66 2.64-1 4 1.32 0.33 2.64 0.66 4 1 0.33 1.65 0.66 3.3 1 5h2v2c0.66 0.33 1.32 0.66 2 1 0.33 0.99 0.66 1.98 1 3-0.66 0.99-1.32 1.98-2 3h-2c0.33 0.66 0.66 1.32 1 2 0.99 0.33 1.98 0.66 3 1 0.33-0.66 0.66-1.32 1-2 1.55 1.55 1.55 1.55 3 4-0.145 3.45-0.145 3.45-0.812 7.25-0.213 1.26-0.425 2.53-0.645 3.83-0.179 0.964-0.358 1.93-0.543 2.92-0.33-0.66-0.66-1.32-1-2h-2c-0.33 0.66-0.66 1.32-1 2-5.75-1.88-5.75-1.88-8-3v-3c-0.66-0.33-1.32-0.66-2-1 0.33-0.99 0.66-1.98 1-3-1.65 0.66-3.3 1.32-5 2v2c-0.99-0.33-1.98-0.66-3-1-1.2-2.41-1.1-3.95-1.06-6.62 0.00902-0.817 0.018-1.63 0.0273-2.48 0.0116-0.626 0.0232-1.25 0.0352-1.9 0.66-0.33 1.32-0.66 2-1-0.0232-0.857-0.0464-1.71-0.0703-2.6-0.098-6.21-0.104-11.6 2.07-17.4z" fill="#23973B"/>
<path transform="translate(307,509)" d="m0 0c2.54-0.0815 5.08-0.141 7.62-0.188 0.713-0.0251 1.43-0.0503 2.16-0.0762 4.84-0.0666 7.96 0.708 12.2 3.26-2.63 1.32-3.8 0.748-6.62 0.0625-0.817-0.195-1.63-0.389-2.48-0.59-0.626-0.156-1.25-0.312-1.9-0.473-0.99 1.32-1.98 2.64-3 4 0.99 0.33 1.98 0.66 3 1-1.07 2.92-1.78 4.78-4 7h3v2c0.99 0.33 1.98 0.66 3 1v3c-0.897 0.402-0.897 0.402-1.81 0.812-2.25 1.03-2.25 1.03-3.5 2.88-1.69 1.31-1.69 1.31-5.38 1-1.09-0.227-2.19-0.454-3.31-0.688v-3c-4.73 1.67-4.73 1.67-8.5 4.75-1.5 1.25-1.5 1.25-5.19 0.938-1.09-0.227-2.19-0.454-3.31-0.688-1.2-2.14-1.2-2.14-2-5 1.2-2.82 1.2-2.82 3.12-5.69 0.621-0.953 1.24-1.91 1.88-2.89 1.96-2.39 3.22-3.22 5.99-4.43 0.699-1.32 1.37-2.65 2-4 3-2 3-2 7-2v-2z" fill="#208C37"/>
<path transform="translate(470 388)" d="m0 0c1.91-0.0193 1.91-0.0193 3.87-0.0389 1.4-0.00817 2.8-0.0156 4.19-0.0224 0.708-0.00408 1.42-0.00815 2.15-0.0124 3.76-0.0209 7.51-0.0352 11.3-0.0445 3.84-0.011 7.69-0.0453 11.5-0.0852 2.98-0.0264 5.97-0.0345 8.95-0.0381 1.41-0.00481 2.83-0.0163 4.24-0.035 10.2-0.126 22.5-0.208 30.4 6.98 0.73 0.817 1.46 1.63 2.21 2.48 0.571 0.632 1.14 1.26 1.73 1.91 0.481 0.565 0.962 1.13 1.46 1.71 0.733 0.855 0.733 0.855 1.48 1.73 4.53 5.6 4.48 10.7 4.45 17.7 1.46e-4 0.791 2.92e-4 1.58 4.43e-4 2.4-6.94e-4 2.6-0.00846 5.21-0.0163 7.81-0.00187 1.81-0.00329 3.62-0.00429 5.43-0.00381 4.75-0.0136 9.51-0.0247 14.3-0.0102 4.85-0.0148 9.71-0.0198 14.6-0.0107 9.52-0.0278 19-0.0488 28.5-0.99 0.495-0.99 0.495-2 1v-80c-0.66-0.33-1.32-0.66-2-1v-2c-0.318-1.67-0.65-3.34-1-5-0.619 0.351-1.24 0.701-1.88 1.06-1.05 0.464-1.05 0.464-2.12 0.938-2.78-1.39-2.87-3.19-4-6l-2-1c-0.103-0.639-0.206-1.28-0.312-1.94-0.227-0.681-0.454-1.36-0.688-2.06-2.39-1.11-2.39-1.11-5-2-0.387-0.504-0.773-1.01-1.17-1.53-2.9-2.33-6.14-1.95-9.71-1.99-0.795-0.018-1.59-0.036-2.41-0.0545-2.61-0.055-5.22-0.0885-7.83-0.121-1.8-0.0328-3.6-0.0666-5.39-0.101-16.5-0.296-33-0.32-49.5-0.211v-2c3.28-1.09 5.73-1.15 9.18-1.18z" fill="#424443"/>
<path transform="translate(247,661)" d="m0 0c2.12 2.62 4.13 5.2 6 8h2c0.66 1.65 1.32 3.3 2 5h2v2c0.66 0.33 1.32 0.66 2 1 2.06 1.31 2.06 1.31 4 3 0.144 0.681 0.289 1.36 0.438 2.06 0.186 0.639 0.371 1.28 0.562 1.94 1.65 0.702 3.32 1.37 5 2 0.33 0.99 0.66 1.98 1 3 0.681 0.681 1.36 1.36 2.06 2.06 0.959 0.959 0.959 0.959 1.94 1.94v2l2 1c-0.99 0.66-1.98 1.32-3 2l1 6h3l1 4c-4.95 0.495-4.95 0.495-10 1 0.33-1.98 0.66-3.96 1-6h-2c-0.33 0.66-0.66 1.32-1 2-1.76-3.09-2-4.23-2-8h-2c-0.413-0.804-0.825-1.61-1.25-2.44-1.56-2.89-1.56-2.89-4.94-3.38-1.39-0.0928-1.39-0.0928-2.81-0.188-0.33-0.99-0.66-1.98-1-3 0.33-0.66 0.66-1.32 1-2h-4c-0.33-1.32-0.66-2.64-1-4-0.639-0.103-1.28-0.206-1.94-0.312-0.681-0.227-1.36-0.454-2.06-0.688-0.33-0.99-0.66-1.98-1-3-0.66 0.66-1.32 1.32-2 2-0.33-2.64-0.66-5.28-1-8 1.65-0.99 3.3-1.98 5-3 0.66 0.66 1.32 1.32 2 2-0.495-1.08-0.495-1.08-1-2.19-1.01-2.83-1.17-4.84-1-7.81z" fill="#279339"/>
<path transform="translate(695,623)" d="m0 0c-0.813 0.662-1.63 1.32-2.46 2.01-3.11 3.67-3.23 6.27-3.14 10.9-0.00591 1.17-0.00591 1.17-0.0119 2.36-0.00669 2.56 0.0224 5.12 0.0527 7.68 0.00425 1.78 0.00658 3.56 0.00706 5.35 0.00616 3.73 0.0288 7.46 0.0645 11.2 0.0454 4.79 0.06 9.57 0.0637 14.4 0.00442 3.68 0.0197 7.35 0.0389 11 0.00889 1.77 0.0156 3.53 0.0202 5.3 0.00901 2.46 0.0314 4.92 0.0579 7.38 6.65e-4 0.733 0.00133 1.47 0.00201 2.22-0.0572 4.09-0.0572 4.09 2.3 7.27 1.52 0.598 3.07 1.14 4.62 1.62 0.817 0.26 1.63 0.521 2.48 0.789 0.626 0.193 1.25 0.387 1.9 0.586-1.18 3.55-2.01 4.75-5 7-2.99 0.629-5.95 0.87-9 1-0.99-2.97-0.99-2.97-2-6 1.49-0.99 1.49-0.99 3-2-2.46-2.46-4.71-3-8-4 0.33-0.99 0.66-1.98 1-3h2c0.33-1.32 0.66-2.64 1-4h2c-0.119-5.94-0.243-11.9-0.372-17.8-0.0431-2.02-0.0848-4.03-0.125-6.05-0.0584-2.91-0.122-5.83-0.186-8.74-0.0167-0.889-0.0334-1.78-0.0506-2.69-0.121-5.21-0.469-10.3-1.05-15.5-0.292-2.96-0.273-5.89-0.214-8.86 0.0504-3.57 0.0105-6.82-0.75-10.3-0.25-3-0.25-3 1.56-5.88 3.45-3.35 5.48-3.23 10.2-3.12z" fill="#2A9B3C"/>
<path transform="translate(476 717)" d="m0 0c1.48 0.00424 1.48 0.00424 2.99 0.00858 3.13 0.0111 6.26 0.0362 9.38 0.0617 2.13 0.01 4.26 0.0192 6.39 0.0273 5.2 0.022 10.4 0.0553 15.6 0.0977v1c-0.71 0.133-1.42 0.266-2.15 0.402-0.919 0.177-1.84 0.353-2.79 0.535-0.917 0.174-1.83 0.348-2.78 0.527-2.24 0.312-2.24 0.312-3.29 1.54-2.02 0.234-4.04 0.413-6.06 0.562-1.1 0.0838-2.21 0.168-3.35 0.254-0.855 0.0606-1.71 0.121-2.59 0.184 2.31 0.33 4.62 0.66 7 1v1c-2.31 0.33-4.62 0.66-7 1v5c-0.495-0.99-0.495-0.99-1-2-0.33 0.66-0.66 1.32-1 2-0.99 0.66-1.98 1.32-3 2l-1 2c-0.99 0.33-1.98 0.66-3 1-0.99-0.66-1.98-1.32-3-2v-3c-2.64 0.33-5.28 0.66-8 1 0.667-3.33 1.33-6.67 2-10-0.681 0.289-1.36 0.577-2.06 0.875-2.94 1.12-2.94 1.12-6.62 1.88-3.52 0.896-3.52 0.896-4.62 3.94-0.227 1.09-0.454 2.19-0.688 3.31-0.366 1.29-0.741 2.59-1.12 3.88-0.289 1.03-0.577 2.06-0.875 3.12-1.51-1.23-1.51-1.23-3-3-0.441-5.12 0.814-9.96 4-14 6.64-4.43 13.9-4.28 21.6-4.2z" fill="#393B3A"/>
<path transform="translate(1102,417)" d="m0 0v3c0.474 0.743 0.949 1.49 1.44 2.25 1.86 3.27 2.2 6.04 2.56 9.75 4.48 0.723 4.48 0.723 9 1 0.247-0.743 0.495-1.49 0.75-2.25 1.34-2.95 2.86-4.6 5.25-6.75 1.21 3.62 1.11 6.93 1.06 10.7-0.00451 0.702-0.00902 1.4-0.0137 2.13-0.0118 1.73-0.0297 3.46-0.0488 5.19 0.99-0.33 1.98-0.66 3-1 0.495 0.99 0.495 0.99 1 2 5.61 0.33 11.2 0.66 17 1v1c-1.07 0.0374-2.15 0.0748-3.25 0.113-1.44 0.0657-2.87 0.132-4.31 0.199-0.704 0.0226-1.41 0.0451-2.13 0.0684-7.39 0.375-12.7 2.67-18.3 7.62-0.553-2.08-1-3.84-1-6-0.949 0.0412-1.9 0.0825-2.88 0.125-3.12-0.125-3.12-0.125-5.12-2.12 0.0928-1.86 0.0928-1.86 0.188-3.75 0.156-4.83-2.1-6.63-5.19-10.2-0.705-2.73-0.853-5.16-1-8-0.784-0.0825-1.57-0.165-2.38-0.25-0.866-0.248-1.73-0.495-2.62-0.75-0.66-1.32-1.32-2.64-2-4h-13v-1c7.51-0.945 14.5-0.945 22 0z" fill="#424443"/>
<path transform="translate(312,470)" d="m0 0c3.13-0.0468 5.99 0.105 9 1 1.99 2.08 2.94 4.35 4 7 0.413 0.66 0.825 1.32 1.25 2 1.52 4.05 1.28 7.74-0.375 11.7-4.49 5.54-9.35 6.88-16.1 7.69-7.56 1.1-13.4 3.35-19.8 7.62-0.99 0.66-1.98 1.32-3 2 0.188-1.81 0.188-1.81 1-4 2.44-1.62 2.44-1.62 5-3l2-2c3.8-1.52 6.91-2.24 11-2v-2c-0.66-0.33-1.32-0.66-2-1h7v-3c1.98-0.66 3.96-1.32 6-2v-3h-2c0.33 0.99 0.66 1.98 1 3h-2c-0.248-0.619-0.495-1.24-0.75-1.88-1.46-2.48-2.63-3.08-5.25-4.12 1.32-0.33 2.64-0.66 4-1v-5h2c-0.186-0.804-0.371-1.61-0.562-2.44-0.144-0.846-0.289-1.69-0.438-2.56l1-1-2-2z" fill="#29993B"/>
<path transform="translate(761,504)" d="m0 0c0.33 0.99 0.66 1.98 1 3h4c1.15 2.73 2.3 5.46 3.44 8.19 0.488 1.15 0.488 1.15 0.986 2.33 3.25 7.8 3.25 7.8 3.58 11.5-1.44 2.31-1.44 2.31-3 4-1.98-0.33-3.96-0.66-6-1v-2h5v-2h-6v2h-7c0.26-2.02 0.521-4.04 0.781-6.05 0.256-1.95 0.256-1.95 0.219-3.95h-2c-0.66-3.63-1.32-7.26-2-11-1.32-0.33-2.64-0.66-4-1 3.34-4.28 5.71-4.41 11-4z" fill="#404040"/>
<path transform="translate(884,416)" d="m0 0c0.99 0.66 1.98 1.32 3 2-4.46 0.495-4.46 0.495-9 1 0.33 2.64 0.66 5.28 1 8 1.65 0.33 3.3 0.66 5 1 0.197 2.52 0.383 5.04 0.562 7.56 0.0841 1.06 0.0841 1.06 0.17 2.13 0.318 4.6 0.00827 8.73-0.732 13.3-0.0606 1.64-0.0878 3.29-0.0625 4.94 0.0135 1.16 0.0135 1.16 0.0273 2.34 0.0116 0.568 0.0232 1.14 0.0352 1.72h-8c-1.27-3.82-1.29-7.51-1.42-11.5-0.0418-1.25-0.0418-1.25-0.0845-2.52-0.0564-1.76-0.11-3.52-0.161-5.28-0.0822-2.69-0.186-5.39-0.29-8.08-0.0521-1.71-0.103-3.42-0.152-5.12-0.0342-0.806-0.0684-1.61-0.104-2.44-0.127-5.61-0.127-5.61 1.51-7.77 2.78-2.1 5.34-1.58 8.7-1.28z" fill="#424443"/>
<path transform="translate(974,490)" d="m0 0-2 1c-1.34 3.95-1.52 5.84 0.207 9.69 1.49 2.56 2.95 4.99 4.79 7.31h2c0.33 0.66 0.66 1.32 1 2 2.02 0.652 2.02 0.652 4 1v2c1.07 0.144 2.14 0.289 3.25 0.438 2.67 0.4 5.16 0.838 7.75 1.56v2h3c0.495 1.98 0.495 1.98 1 4-1.81 0.625-1.81 0.625-4 1-0.99-0.66-1.98-1.32-3-2v-1c-1.19-0.193-2.38-0.387-3.61-0.586-1.57-0.263-3.13-0.526-4.7-0.789-0.786-0.126-1.57-0.253-2.38-0.383l-2.29-0.391c-0.696-0.115-1.39-0.23-2.11-0.349-1.9-0.502-1.9-0.502-4.9-2.5v-2h-2c-0.227-1.28-0.454-2.56-0.688-3.88-0.474-2.19-0.474-2.19-1.31-4.12-2.48-1.6-2.48-1.6-5-2-0.33-3.3-0.66-6.6-1-10 8.04-3.35 8.04-3.35 12-2z" fill="#3F4241"/>
<path transform="translate(906,424)" d="m0 0h1c0.998 14.3 1.36 28.5 1.62 42.8 0.0228 1.19 0.0456 2.38 0.0691 3.6 0.429 23.2 0.095 46.4-0.694 69.6h-2l-0.586-6.15c-0.205-0.915-0.205-0.915-0.414-1.85-0.66-0.33-1.32-0.66-2-1-0.625-2.06-0.625-2.06-1-4-0.33 0.99-0.66 1.98-1 3-2.48 0.495-2.48 0.495-5 1-1.26-4.29-0.63-6.88 1-11 3.47-0.495 3.47-0.495 7-1 1.42-4.26 1.39-8.4 1.56-12.9 0.0417-1.06 0.0835-2.11 0.126-3.2 0.393-11.6 0.422-23.3 0.436-34.9 0.00259-0.96 0.00518-1.92 0.00784-2.91 0.0218-10.3-0.0408-20.5-0.871-30.7-0.274-3.66-0.182-6.81 0.738-10.4z" fill="#424443"/>
<path transform="translate(1020,419)" d="m0 0c6.9 0.812 12 5.48 17 10v2c0.99 0.33 1.98 0.66 3 1 1.44 2.65 2.73 5.27 4 8 1.28 2.47 2.56 4.94 3.85 7.41 2.62 5.91 3.39 11.1 3.27 17.5-0.00902 0.684-0.018 1.37-0.0273 2.07-0.0233 1.66-0.0591 3.33-0.0977 4.99-1.52-1.27-1.52-1.27-3-3 0.312-3.69 0.312-3.69 1-7h-3c-0.11-0.82-0.219-1.64-0.332-2.48-0.159-1.08-0.317-2.16-0.48-3.27-0.151-1.07-0.302-2.13-0.457-3.23-0.52-3.02-0.52-3.02-2.29-5.08-1.87-2.53-1.75-4.08-1.62-7.19 0.0271-0.892 0.0541-1.78 0.082-2.7 0.0348-0.675 0.0696-1.35 0.105-2.05h-2c0.206 0.949 0.412 1.9 0.625 2.88 0.124 1.03 0.247 2.06 0.375 3.12-0.66 0.66-1.32 1.32-2 2-2.8-2.07-3.01-3.07-3.56-6.62-0.144-1.11-0.289-2.23-0.438-3.38-0.66-0.33-1.32-0.66-2-1-0.103-0.639-0.206-1.28-0.312-1.94-0.227-0.681-0.454-1.36-0.688-2.06-2.49-1.3-2.49-1.3-5-2-0.33 0.66-0.66 1.32-1 2-2-3-2-3-2-5-0.776-3.07-0.776-3.07-3-5z" fill="#424443"/>
<path transform="translate(1182,430)" d="m0 0c4.67 4.48 8.19 9.13 8.6 15.8 0.0143 1.78 0.00158 3.55-0.0336 5.33 0.0011 1.46 0.0011 1.46 0.00221 2.96-0.00346 3.2-0.0423 6.41-0.0816 9.61-0.00933 2.23-0.0164 4.46-0.0214 6.69-0.019 5.85-0.0681 11.7-0.124 17.6-0.0513 5.98-0.074 12-0.0992 17.9-0.0535 11.7-0.139 23.4-0.244 35.2h-2c-0.75-5.97-1.13-11.8-1.06-17.8 0.00867-1.69 0.0172-3.39 0.0256-5.08 0.00621-0.881 0.0124-1.76 0.0188-2.67 0.101-15.4-9.09e-4 -30.7-0.419-46-0.0197-0.773-0.0395-1.55-0.0598-2.34 0.414-12.9 0.414-12.9-2.5-25.1h3c-0.33-1.32-0.66-2.64-1-4h-5c-0.0424-2.33-0.0409-4.67 0-7 0.33-0.33 0.66-0.66 1-1z" fill="#424543"/>
<path transform="translate(803 415)" d="m0 0c0.799 0.0271 1.6 0.0541 2.42 0.082 0.603 0.0348 1.21 0.0696 1.83 0.105v2l2 1c-0.626 0.159-1.25 0.317-1.9 0.48-5.18 1.32-5.18 1.32-8.73 5.02-0.586 2.62-0.586 2.62 0.625 5.5 0.99-0.33 1.98-0.66 3-1 0.66 2.31 1.32 4.62 2 7 1.45-0.0309 1.45-0.0309 2.94-0.0625 3.06 0.0625 3.06 0.0625 4.06 1.06 0.141 2.67 0.0425 5.32 0 8-1.65-0.33-3.3-0.66-5-1v-2h2c0.33-0.66 0.66-1.32 1-2h-4c-0.33 0.99-0.66 1.98-1 3-1.94 0.75-1.94 0.75-4 1l-2-1v-5h-2v13h-1c-0.658-8.07-1.14-16.2-1.31-24.2-0.0296-0.726-0.0593-1.45-0.0898-2.2-0.0365-3.21-0.0314-5.05 2.12-7.52 2.56-1.16 4.23-1.34 7.03-1.21z" fill="#424443"/>
<path transform="translate(452,512)" d="m0 0 1 2h2v2c0.66 0.33 1.32 0.66 2 1l-2 4c2.31 0.66 4.62 1.32 7 2 0.125 2.88 0.125 2.88 0 6-2 2-2 2-4.21 2.16-0.86-0.0322-1.72-0.0645-2.61-0.0977-2.94-0.0721-5.29-0.0401-8.19 0.562-0.66 0.124-1.32 0.247-2 0.375-0.66-0.66-1.32-1.32-2-2-0.99-0.66-1.98-1.32-3-2 0.66-1.98 1.32-3.96 2-6h2c0.0915-0.593 0.183-1.19 0.277-1.8 0.895-2.73 2.06-3.67 4.29-5.45 0.641-0.521 1.28-1.04 1.94-1.58 0.494-0.387 0.987-0.773 1.5-1.17z" fill="#229339"/>
<path transform="translate(947,592)" d="m0 0h1v126c-2-2-2-2-2.16-4.35 0.0322-0.896 0.0645-1.79 0.0977-2.71 0.0543-1.65 0.0828-3.29 0.0625-4.94-0.33-0.33-0.66-0.66-1-1-0.0986-1.58-0.128-3.17-0.129-4.76-0.00315-1.02-0.0063-2.03-0.00955-3.08 0.00202-1.11 0.00405-2.21 0.00613-3.36-9.57e-4 -1.13-0.00191-2.27-0.0029-3.44-6.82e-4 -2.41 0.00118-4.82 0.00534-7.23 0.00531-3.67 7.5e-5 -7.34-0.00635-11 6.61e-4 -2.34 0.00194-4.68 0.00391-7.02-0.00202-1.09-0.00405-2.19-0.00613-3.31 0.0132-4.35 0.0338-8.61 0.643-12.9 0.608-4.77 0.602-9.43 0.558-14.2-0.00379-0.969-0.00757-1.94-0.0115-2.93-0.0121-3.07-0.0308-6.15-0.051-9.22-0.0267-4.05-0.0467-8.1-0.0625-12.2-0.0083-0.918-0.0166-1.84-0.0251-2.78-0.02-5.29 0.314-10.3 1.09-15.6z" fill="#2A9B3C"/>
<path transform="translate(1413,446)" d="m0 0c4.96 5.76 5.15 9.83 5.11 17.3 1.46e-4 0.83 2.92e-4 1.66 4.43e-4 2.51-6.96e-4 2.74-0.00847 5.48-0.0163 8.21-0.00187 1.9-0.00329 3.8-0.00429 5.7-0.00382 5-0.0136 10-0.0247 15-0.0102 5.1-0.0148 10.2-0.0198 15.3-0.0107 10-0.0278 20-0.0488 30-2.47 0.99-2.47 0.99-5 2v-2h2c-0.458-3.47-0.891-6.67-2-10 0.165-0.969 0.33-1.94 0.5-2.94 0.468-2.87 0.432-4.37-0.5-7.06 0.99-0.495 0.99-0.495 2-1v-61h-1c-0.33-3.96-0.66-7.92-1-12z" fill="#396341"/>
<path transform="translate(470,473)" d="m0 0c3.23 2.15 4.76 3.27 6 7 0.545 4.69 0.448 8.1-1.69 12.4-2.33 2.65-4.07 4.25-7.31 5.62-2.31-0.312-2.31-0.312-4-1 0.33-0.66 0.66-1.32 1-2-0.99-0.33-1.98-0.66-3-1v-2c1.98-0.66 3.96-1.32 6-2l-2-2h-2c-0.143-7.43-0.143-7.43 1-11h2c0.33-0.99 0.66-1.98 1-3 0.99-0.33 1.98-0.66 3-1z" fill="#299A3B"/>
<path transform="translate(1108,468)" d="m0 0h2c1.13 5.51 1.13 5.51 0.535 7.77-0.739 3.08-0.667 6-0.66 9.17-0.00258 1.21-0.00516 2.41-0.00781 3.65 0.0131 3.22 0.0131 3.22 0.644 5.52 0.707 4.18 0.537 8.27 0.438 12.5-0.0189 0.92-0.0377 1.84-0.0572 2.79-0.0418 1.94-0.0865 3.88-0.134 5.82-0.0705 2.98-0.125 5.95-0.178 8.93-0.0426 1.88-0.0862 3.77-0.131 5.65-0.0147 0.893-0.0294 1.79-0.0445 2.71-0.0231 0.825-0.0462 1.65-0.07 2.5-0.0163 0.727-0.0327 1.45-0.0495 2.2-0.285 1.8-0.285 1.8-2.29 3.8-2.46-7.08-2.47-13.7-1.5-21.1 0.545-4.35 0.613-8.68 0.625-13.1 0.00451-0.678 0.00902-1.36 0.0137-2.05-0.00875-2.97-0.144-5.79-0.643-8.72-0.626-3.83-0.604-7.54-0.559-11.4 0.00451-0.736 0.00902-1.47 0.0137-2.23 0.0117-1.8 0.0296-3.6 0.0488-5.39h2v-9z" fill="#414843"/>
<path transform="translate(695,430)" d="m0 0 2 1c-0.375 0.51-0.75 1.02-1.14 1.55-8.99 12.8-13.6 26.9-12.9 42.5-1.49-0.495-1.49-0.495-3-1-1.49 2.48-1.49 2.48-3 5-1.06-1.88-1.06-1.88-2-4 0.33-0.66 0.66-1.32 1-2-2.97-0.66-5.94-1.32-9-2-0.33 0.99-0.66 1.98-1 3h-1v-5c0.639-0.289 1.28-0.577 1.94-0.875 2.21-0.953 2.21-0.953 3.06-3.12h2c0.495-0.66 0.99-1.32 1.5-2 0.495-0.66 0.99-1.32 1.5-2h2c0.33 0.99 0.66 1.98 1 3 2.48-2.59 3.28-4.82 3.94-8.25 0.787-4.01 2.12-7.17 4.04-10.8 1.65-3.22 2.8-6.59 4.02-10h2c0.124-0.639 0.247-1.28 0.375-1.94 0.309-1.02 0.309-1.02 0.625-2.06l2-1z" fill="#424443"/>
<path transform="translate(795,451)" d="m0 0h1c0.33 3.63 0.66 7.26 1 11 1.67-0.556 3.34-1.12 5-1.69 2-0.312 2-0.312 5 1.69-0.66 0.66-1.32 1.32-2 2 1.98-0.33 3.96-0.66 6-1 0.33 1.65 0.66 3.3 1 5-2.49 1.24-3.76 0.954-6.5 0.625-0.794-0.0902-1.59-0.18-2.41-0.273-2.09-0.352-2.09-0.352-4.09-1.35-0.0606 1.24-0.121 2.48-0.184 3.76-0.0844 1.64-0.169 3.28-0.254 4.93-0.059 1.22-0.059 1.22-0.119 2.47-0.213 4.05-0.605 7.86-1.44 11.8 0.278 0.959 0.278 0.959 0.562 1.94 0.646 3.04-0.465 5.22-1.56 8.06h-1c-0.798-4.91-1.13-9.59-1.13-14.6-9.57e-4 -0.701-0.00191-1.4-0.0029-2.12-6.76e-4 -1.47 0.00114-2.95 0.00534-4.42 0.00534-2.23 4.4e-5 -4.46-0.00635-6.69-0.00299-7.12 0.132-14.1 1.14-21.2z" fill="#424443"/>
<path transform="translate(470 388)" d="m0 0c1.31-0.00638 2.62-0.0128 3.96-0.0193 1.43-0.00153 2.86-0.00264 4.29-0.00337 1.47-0.00321 2.93-0.00658 4.4-0.0101 3.07-0.00599 6.14-0.00784 9.22-0.00725 3.94 1.02e-4 7.87-0.0136 11.8-0.0308 3.03-0.0111 6.05-0.0131 9.08-0.0126 1.45-0.00118 2.9-0.0056 4.35-0.0133 2.03-0.0098 4.06-0.00566 6.09-8.95e-4 1.73-0.00214 1.73-0.00214 3.5-0.00432 2.88 0.24 4.53 0.746 6.97 2.25-1 1-1 1-3.85 1.12-1.28-0.00222-2.55-0.00444-3.87-0.00673-0.702 1.46e-4 -1.4 2.92e-4 -2.13 4.43e-4 -2.33-6.99e-4 -4.66-0.00849-7-0.0163-1.61-0.00186-3.23-0.00329-4.84-0.00429-4.25-0.00383-8.51-0.0137-12.8-0.0247-4.34-0.0102-8.67-0.0148-13-0.0198-8.51-0.0107-17-0.0278-25.5-0.0488v-2c3.33-1.11 5.83-1.13 9.34-1.15z" fill="#424443"/>
<path transform="translate(912,596)" d="m0 0 4 2c0.0606 1.25 0.121 2.51 0.184 3.8 0.0844 1.65 0.169 3.3 0.254 4.95 0.0393 0.825 0.0786 1.65 0.119 2.5 0.0419 0.799 0.0838 1.6 0.127 2.42 0.0367 0.733 0.0733 1.47 0.111 2.22 0.206 2.12 0.637 4.06 1.21 6.11h-2c0.00524 0.661 0.0105 1.32 0.0159 2 0.0207 2.98 0.0338 5.96 0.0466 8.93 0.00838 1.04 0.0168 2.08 0.0254 3.15 0.00322 0.989 0.00645 1.98 0.00977 3 0.00524 0.916 0.0105 1.83 0.0159 2.78-0.114 2.13-0.114 2.13-1.11 3.13-0.0318 2.75 0.0684 5.49 0.16 8.24-0.166 2.86-0.821 4.29-2.16 6.76-0.951-13.7-1.12-27.4-1.06-41.1 0.00503-2.04 0.00959-4.08 0.0137-6.11 0.0109-4.92 0.028-9.84 0.0488-14.8z" fill="#2A9B3C"/>
<path transform="translate(826,415)" d="m0 0c0.33 0.99 0.66 1.98 1 3h2c1.01 12.1 0.967 23.9 0.562 36-0.0534 1.76-0.106 3.52-0.158 5.27-0.127 4.24-0.263 8.48-0.404 12.7-2-2-2-2-2.16-4.37 0.0322-1.01 0.0645-2.02 0.0977-3.07 0.196-14.8-0.983-29-3.94-43.6-3.3-0.33-6.6-0.66-10-1-0.33-0.99-0.66-1.98-1-3 4.87-1.59 8.81-2.21 14-2z" fill="#424743"/>
<path transform="translate(1245,507)" d="m0 0c0.33 0.66 0.66 1.32 1 2 0.793 0.0838 1.59 0.168 2.4 0.254 0.857 0.246 1.71 0.492 2.6 0.746 1.44 2.65 1.44 2.65 2.56 5.94 1.36 4.43 1.36 4.43 4.59 7.44 0.61 0.205 1.22 0.41 1.85 0.621v5h-2v2h-6c-4.59-9.41-4.59-9.41-4-14-0.928-0.289-1.86-0.577-2.81-0.875-3.19-1.12-3.19-1.12-6.19-3.12 1.88-3.88 1.88-3.88 3-5 0.99-0.33 1.98-0.66 3-1z" fill="#424443"/>
<path transform="translate(419,649)" d="m0 0c0.66 0.33 1.32 0.66 2 1-1.56 3.82-3.96 6.26-7 9h-2v2c-7.3 4.23-13.7 4.46-22 4 1.32-0.33 2.64-0.66 4-1-0.33-0.99-0.66-1.98-1-3 1.65-0.66 3.3-1.32 5-2-0.66-0.66-1.32-1.32-2-2 1.19-0.13 1.19-0.13 2.41-0.262 7.12-0.764 7.12-0.764 13-4.43 0.846-0.763 1.69-1.53 2.56-2.31 2.88 0.188 2.88 0.188 5 1v-2z" fill="#299A3B"/>
<path transform="translate(887 514)" d="m0 0c1.21 0.0309 1.21 0.0309 2.44 0.0625 0.0765 4.52 0.102 8.59-1 13h4v5c-1.98 0.33-3.96 0.66-6 1-0.33 1.32-0.66 2.64-1 4h7v2c-3.96 0.495-3.96 0.495-8 1-3.04-4.18-3-6.94-3-12-1.35-1.94-1.35-1.94-3-3l2-2c0.33-0.66 0.66-1.32 1-2h2c-0.0206-0.969-0.0412-1.94-0.0625-2.94 0.0824-4.04 0.0824-4.04 3.62-4.12z" fill="#434544"/>
<path transform="translate(1385,418)" d="m0 0c5.71 0.466 9.16 1.94 14 5v2c0.557 0.206 1.11 0.413 1.69 0.625 6.2 3.69 11 11.8 13 18.6 0.119 0.57 0.237 1.14 0.359 1.73l-4-1v-6c-0.743 0.102-1.48 0.204-2.25 0.309-2.75-0.309-2.75-0.309-4.81-2.46-0.639-0.919-1.28-1.84-1.94-2.79-2.57-3.92-2.57-3.92-6.64-5.79-0.777-0.0915-1.55-0.183-2.36-0.277-1.69-1.5-1.69-1.5-3-3-0.66-0.33-1.32-0.66-2-1v-2c-0.66-0.33-1.32-0.66-2-1h2v-2c-0.66-0.33-1.32-0.66-2-1z" fill="#424443"/>
<path transform="translate(206,479)" d="m0 0h1c0.33 1.65 0.66 3.3 1 5h5c0.33-1.32 0.66-2.64 1-4 0.33 1.32 0.66 2.64 1 4 0.33-1.32 0.66-2.64 1-4h2c0.33 1.98 0.66 3.96 1 6 1.65 0.33 3.3 0.66 5 1-0.33 1.65-0.66 3.3-1 5-0.566 0.11-1.13 0.219-1.71 0.332-0.733 0.159-1.47 0.317-2.22 0.48-0.731 0.151-1.46 0.302-2.21 0.457-0.915 0.362-0.915 0.362-1.85 0.73-0.33 0.99-0.66 1.98-1 3-2.49-1.2-4.68-2.45-7-4-0.766-2.24-0.766-2.24-1.25-4.88-0.17-0.864-0.34-1.73-0.516-2.62-0.232-2.48-7.29e-4 -4.15 0.766-6.51z" fill="#424443"/>
<path transform="translate(229,422)" d="m0 0h2c-0.00222 0.637-0.00444 1.27-0.00673 1.93-0.0223 6.68-0.0373 13.4-0.0482 20.1-5e-3 2.49-0.0118 4.98-0.0205 7.47-0.0122 3.59-0.0178 7.19-0.0222 10.8-0.00516 1.1-0.0103 2.19-0.0156 3.33-4.52e-4 6.34 0.307 12.5 0.99 18.8 0.173 3.61-0.581 6.24-1.88 9.59-0.99-0.33-1.98-0.66-3-1 0.33-0.99 0.66-1.98 1-3-0.99-0.33-1.98-0.66-3-1 0.33-1.32 0.66-2.64 1-4h3v-3c-0.66-0.33-1.32-0.66-2-1 0.33-0.66 0.66-1.32 1-2-0.279-1.68-0.608-3.35-1-5h2c-0.33-0.66-0.66-1.32-1-2-0.094-1.35-0.128-2.71-0.129-4.06-0.00315-0.838-0.0063-1.68-0.00955-2.54 0.00202-0.908 0.00405-1.82 0.00613-2.75-9.57e-4 -0.935-0.00191-1.87-0.0029-2.83-6.82e-4 -1.98 0.00117-3.97 0.00534-5.95 0.00532-3.02 6.96e-5 -6.04-0.00635-9.06 6.61e-4 -1.93 0.00194-3.86 0.00391-5.78-0.00202-0.898-0.00405-1.8-0.00613-2.72 0.018-4.87 0.317-9.49 1.14-14.3z" fill="#424443"/>
<path transform="translate(853,591)" d="m0 0c0.122 0.593 0.245 1.19 0.371 1.8 0.905 3.17 2.75 5.53 4.63 8.2-0.33 0.66-0.66 1.32-1 2-2.56 0.625-2.56 0.625-5 1 0.99 1.49 0.99 1.49 2 3-2.56 0.5-2.56 0.5-6 0-2.72-2.37-4.97-5.02-7-8v-2c4.67-0.326 7.17 0.294 11 3v-2c-0.66-0.495-1.32-0.99-2-1.5-0.66-0.495-1.32-0.99-2-1.5v-2c-1.77 0.141-3.54 0.288-5.31 0.438-1.48 0.122-1.48 0.122-2.99 0.246-2.79 0.235-2.79 0.235-5.7 1.32v-2h-8v-1c2.81-0.367 5.62-0.719 8.44-1.06 0.783-0.104 1.57-0.208 2.37-0.314 5.61-0.67 10.6-0.424 16.2 0.377z" fill="#28983B"/>
<path transform="translate(422,539)" d="m0 0h1c0.177 13.2 0.343 26.4 0.495 39.5 0.0708 6.12 0.145 12.2 0.229 18.4 0.0804 5.91 0.151 11.8 0.214 17.7 0.0259 2.25 0.0554 4.5 0.0887 6.76 0.046 3.16 0.079 6.31 0.109 9.47 0.0165 0.929 0.0331 1.86 0.0501 2.81 0.0339 5.19-0.484 9.43-2.19 14.3h-1c-0.557-2.27-1.1-4.54-1.62-6.81-0.302-1.26-0.603-2.53-0.914-3.83-0.461-3.36-0.461-3.36 1.54-6.36 1.27-4.42 1.13-8.89 1.1-13.4-0.00146-0.838-0.00292-1.68-0.00443-2.54-0.0038-1.81-0.0099-3.63-0.0181-5.44-0.0128-2.87-0.0193-5.73-0.0241-8.6-0.0114-6.08-0.0307-12.2-0.051-18.2-0.0236-7.05-0.0439-14.1-0.0559-21.2-0.00651-2.83-0.019-5.66-0.0317-8.49-0.00363-1.72-0.00698-3.45-0.01-5.17-0.00775-1.19-0.00775-1.19-0.0157-2.4-1.81e-4 -1.84 0.0509-3.69 0.113-5.53 0.33-0.33 0.66-0.66 1-1z" fill="#2A9B3C"/>
<path transform="translate(673,486)" d="m0 0c0.928 0.278 0.928 0.278 1.88 0.562 2.17 0.674 2.17 0.674 4.12-0.562 0.625 1.88 0.625 1.88 1 4-0.66 0.66-1.32 1.32-2 2 0.33 0.99 0.66 1.98 1 3 0.343 1.33 0.676 2.66 1 4 0.186 0.743 0.371 1.49 0.562 2.25 0.144 0.577 0.289 1.15 0.438 1.75 1.65 0.33 3.3 0.66 5 1-0.66 1.32-1.32 2.64-2 4h-11v-5c-0.66-0.33-1.32-0.66-2-1h2c-0.261-0.797-0.261-0.797-0.527-1.61-0.594-3-0.333-5.6-0.0352-8.64 0.102-1.08 0.204-2.16 0.309-3.27 0.0838-0.82 0.168-1.64 0.254-2.48z" fill="#424443"/>
<path transform="translate(1286,415)" d="m0 0c5.88 3.88 5.88 3.88 7 5 0.278 3.47 0.232 6.96 0.25 10.4 0.0206 0.98 0.0412 1.96 0.0625 2.97 0.00516 0.937 0.0103 1.87 0.0156 2.84 0.014 1.29 0.014 1.29 0.0283 2.61-0.176 1.06-0.176 1.06-0.356 2.14-0.99 0.66-1.98 1.32-3 2-0.33-2.31-0.66-4.62-1-7h-2c-0.806-3.58-1.03-6.58-0.5-10.2 0.771-3.73 0.771-3.73-0.5-6.81-3.96-0.33-7.92-0.66-12-1v-1c0.782-0.0606 1.56-0.121 2.37-0.184 1.01-0.0838 2.02-0.168 3.07-0.254 1.01-0.0812 2.02-0.162 3.06-0.246 2.44-0.0485 2.44-0.0485 3.5-1.32z" fill="#3A5D41"/>
<path transform="translate(673 420)" d="m0 0c1.23 0.0135 1.23 0.0135 2.48 0.0273 0.94 0.0174 0.94 0.0174 1.9 0.0352l-2 1v6l4 2c-0.33 1.98-0.66 3.96-1 6-2.97-0.495-2.97-0.495-6-1-0.33 0.66-0.66 1.32-1 2-0.66-0.99-1.32-1.98-2-3-2.06-0.724-2.06-0.724-4-1 0.165-0.887 0.33-1.77 0.5-2.69 0.43-2.85 0.584-5.44 0.5-8.31 2.41-1.2 3.95-1.1 6.62-1.06z" fill="#424443"/>
<path transform="translate(767,512)" d="m0 0c3.73 4.29 7.13 10.1 6.88 15.9-0.875 2.12-0.875 2.12-2.88 5.12-1.98-0.33-3.96-0.66-6-1v-2h5v-2h-6v2h-7c0.454-0.433 0.908-0.866 1.38-1.31 1.83-1.8 1.83-1.8 3.62-4.69v2h2c0.597-2.76 1-5.16 1-8 0.469-2.21 0.987-3.97 2-6z" fill="#424443"/>
<path transform="translate(324,715)" d="m0 0c0.877 0.156 1.75 0.312 2.66 0.473 7.09 1.01 14.3 0.887 21.5 1.04 5.96 0.175 11.2 0.44 16.9 2.48v2c-5.44-0.495-5.44-0.495-11-1-0.33 0.99-0.66 1.98-1 3h-14c-0.33-0.99-0.66-1.98-1-3h-2v-2c-0.615 0.0348-1.23 0.0696-1.86 0.105-1.21 0.0406-1.21 0.0406-2.45 0.082-1.2 0.0522-1.2 0.0522-2.43 0.105-2.74-0.355-3.55-1.19-5.26-3.29z" fill="#124F20"/>
<path transform="translate(691,394)" d="m0 0c-0.66 0.66-1.32 1.32-2 2h-3v2h-2v2c-1.65 0.33-3.3 0.66-5 1v2c-0.763 0.454-1.53 0.908-2.31 1.38-2.73 1.65-3.84 3.1-5.69 5.62-0.99 0.33-1.98 0.66-3 1-1.21 1.24-1.21 1.24-2.44 2.5-2.4 2.34-3.33 3.14-6.56 3.5 0-2 0-2 1.32-3.41 0.554-0.526 1.11-1.05 1.68-1.59 0.966-1.16 1.92-2.33 2.88-3.5 2.45-2.89 4.77-4.69 8.12-6.5 0.454-0.465 0.908-0.931 1.38-1.41 4.52-4.42 10.2-7.41 16.6-6.59z" fill="#404241"/>
<path transform="translate(278,507)" d="m0 0h2c0.33 1.32 0.66 2.64 1 4 1.65-0.99 3.3-1.98 5-3v3h-2c-0.227 0.701-0.454 1.4-0.688 2.12-1.6 3.51-3.27 6.48-6.31 8.88-2.96 1.05-5.89 1.61-9 2 1-2 1-2 4-4-0.33-0.99-0.66-1.98-1-3 0.672-1.79 0.672-1.79 1.75-3.62 0.518-0.917 0.518-0.917 1.05-1.85 1.2-1.52 1.2-1.52 4.2-2.52v-2z" fill="#299A3B"/>
<path transform="translate(535,429)" d="m0 0h1c-0.0922 7.64-0.199 15.3-0.317 22.9-0.0383 2.6-0.0732 5.2-0.104 7.8-0.0456 3.73-0.104 7.46-0.164 11.2-0.0116 1.17-0.0231 2.33-0.035 3.53-0.0199 1.08-0.0397 2.16-0.0602 3.28-0.0133 0.953-0.0266 1.91-0.0404 2.89-0.278 2.41-0.278 2.41-2.28 5.41v-55h2v-2z" fill="#414242"/>
<path transform="translate(1042,527)" d="m0 0v2h5c-0.188 1.88-0.188 1.88-1 4-3.52 1.74-6.79 2.39-10.7 2.75-0.953 0.098-1.91 0.196-2.89 0.297-2.43-0.0469-2.43-0.0469-4.43-2.05 1.06-2.94 1.06-2.94 3-6 3.8-0.968 7.08-1 11-1z" fill="#404040"/>
<path transform="translate(974,450)" d="m0 0c0.33 0.66 0.66 1.32 1 2-0.938 2.12-0.938 2.12-2 4h-2v13c0.99 0.33 1.98 0.66 3 1-0.66 0.33-1.32 0.66-2 1-3.56-1.25-3.56-1.25-7-3-0.33-0.99-0.66-1.98-1-3-0.99 0.33-1.98 0.66-3 1 0.33-2.31 0.66-4.62 1-7h3c0.33 0.33 0.66 0.66 1 1v-4c1.98-0.33 3.96-0.66 6-1v-4l2-1z" fill="#434544"/>
<path transform="translate(906,424)" d="m0 0h1c0.993 13.9 1.35 27.8 1.61 41.7 0.0758 3.81 0.166 7.62 0.257 11.4 0.0484 2.42 0.096 4.85 0.143 7.27 0.0291 1.14 0.0581 2.28 0.0881 3.45 0.0169 1.05 0.0339 2.09 0.0513 3.17 0.0192 0.921 0.0384 1.84 0.0582 2.79-0.209 2.21-0.209 2.21-2.21 4.21-0.98-5.69-1.12-11.2-1.06-16.9 0.00379-0.949 0.00757-1.9 0.0115-2.87 0.0162-4.02 0.044-8.05 0.0715-12.1 0.0184-2.96 0.0321-5.91 0.042-8.87 0.00322-0.96 0.00645-1.92 0.00977-2.91-0.00502-7.35-0.368-14.6-0.951-22-0.109-3.04 0.121-5.46 0.879-8.39z" fill="#434544"/>
<path transform="translate(471 388)" d="m0 0c1.06 0.00212 1.06 0.00212 2.14 0.00429 2.25 0.00559 4.5 0.0181 6.76 0.0309 1.53 0.00502 3.06 0.00958 4.58 0.0137 3.74 0.011 7.49 0.0283 11.2 0.0488-0.66 0.99-1.32 1.98-2 3-2.55 0.267-4.86 0.348-7.41 0.293-0.73-0.00424-1.46-0.00849-2.21-0.0129-2.33-0.0168-4.67-0.0545-7-0.0926-1.58-0.015-3.16-0.0287-4.74-0.041-3.88-0.0331-7.76-0.0849-11.6-0.146v-2c3.51-1.17 6.65-1.13 10.3-1.1z" fill="#414342"/>
<path transform="translate(939,452)" d="m0 0h1c-0.396 5.38-0.876 10.7-2 15.9-1.68 8.56-1.68 17.4-2 26.1-0.66-0.33-1.32-0.66-2-1-0.0495-4.08-0.0858-8.15-0.11-12.2-0.0101-1.39-0.0237-2.77-0.041-4.16-0.0243-1.99-0.0345-3.99-0.0444-5.98-0.0105-1.2-0.0209-2.4-0.0317-3.63 0.227-3 0.227-3 2.23-6h2c-0.0206-1.3-0.0412-2.6-0.0625-3.94-0.0215-1.35-0.00898-2.71 0.0625-4.06 0.33-0.33 0.66-0.66 1-1z" fill="#424342"/>
<path transform="translate(875,493)" d="m0 0c0.0543 1.75 0.0929 3.5 0.125 5.25 0.0232 0.975 0.0464 1.95 0.0703 2.95-0.322 4.62-2.09 7.05-5.51 10-2.31 1.9-3.39 2.69-6.38 3.25-2.38-0.515-4.22-1.26-6.31-2.5 1.98-0.33 3.96-0.66 6-1v-2h3v-2c0.99-0.66 1.98-1.32 3-2 1.75-2.63 2.07-4.49 2.5-7.69 0.165-1.09 0.33-2.19 0.5-3.31 2-1 2-1 3-1z" fill="#393B3A"/>
<path transform="translate(706,388)" d="m0 0h34v2c0.99 0.33 1.98 0.66 3 1h-39c0.66-0.33 1.32-0.66 2-1v-2z" fill="#414342"/>
<path transform="translate(457,509)" d="m0 0c2.52-0.0817 5.04-0.141 7.56-0.188 0.704-0.0251 1.41-0.0503 2.13-0.0762 5.18-0.0717 8.67 0.942 13.3 3.26-3.3 1.1-4.4 0.871-7.69 0.0625-1.21-0.292-1.21-0.292-2.45-0.59-0.922-0.234-0.922-0.234-1.86-0.473-0.66 1.98-1.32 3.96-2 6h-5v-3c-0.763 0.0619-1.53 0.124-2.31 0.188-2.69-0.188-2.69-0.188-4.5-1.69-0.392-0.495-0.784-0.99-1.19-1.5h4v-2z" fill="#166126"/>
<path transform="translate(420,531)" d="m0 0h1c0.33 2.64 0.66 5.28 1 8-0.99 0.495-0.99 0.495-2 1-0.33 0.99-0.66 1.98-1 3-5.42 0.369-5.42 0.369-8.38-1.5-0.536-0.495-1.07-0.99-1.62-1.5 1-3 1-3 3.81-4.62 2.45-1.05 4.59-1.88 7.19-2.38v-2z" fill="#2A9B3C"/>
<path transform="translate(986,617)" d="m0 0c1.32 0.33 2.64 0.66 4 1 0 2.8-0.273 5.34-0.656 8.11-0.135 0.983-0.271 1.97-0.41 2.98-0.143 1.02-0.286 2.05-0.434 3.1-0.143 1.04-0.286 2.07-0.434 3.14-0.354 2.56-0.709 5.12-1.07 7.67-4.38-8.43-2.87-17-1-26z" fill="#2A9B3C"/>
<path transform="translate(766 701)" d="m0 0c0.784 0.0412 1.57 0.0825 2.38 0.125-0.99 1.49-0.99 1.49-2 3-0.33 0.99-0.66 1.98-1 3-1 3-1 3-3 6-0.385 1.66-0.728 3.32-1 5-1.81 0.625-1.81 0.625-4 1-0.99-0.66-1.98-1.32-3-2l2-2c0.4-2.32 0.74-4.66 1-7 1.65-0.33 3.3-0.66 5-1-0.206-0.619-0.413-1.24-0.625-1.88-0.124-0.701-0.247-1.4-0.375-2.12 2-2 2-2 4.62-2.12z" fill="#299A3B"/>
<path transform="translate(441,497)" d="m0 0c7.75-0.125 7.75-0.125 10 1 1.66 0.356 3.33 0.692 5 1v1c-0.928 0.206-1.86 0.413-2.81 0.625-5.48 1.53-10.3 4.56-15.2 7.38-1-2-1-2-0.188-4.56 1.19-2.44 1.19-2.44 3.19-3.44v-3z" fill="#299A3B"/>
<path transform="translate(1251,389)" d="m0 0h8c1.89 3.22 2.29 5.71 2.41 9.42 0.0387 1.02 0.0773 2.05 0.117 3.11 0.0309 1.06 0.0619 2.13 0.0938 3.22 0.0387 1.08 0.0773 2.16 0.117 3.27 0.0942 2.66 0.18 5.32 0.258 7.98h-2c-3.01-6.02-2.32-14.5-1-21-2.97-0.495-2.97-0.495-6-1v-2c-0.66-0.33-1.32-0.66-2-1v-2z" fill="#434544"/>
<path transform="translate(424,548)" d="m0 0h1v77h-1v-77z" fill="#000102"/>
<path transform="translate(462,719)" d="m0 0c-0.99 0.33-1.98 0.66-3 1-1.15 2.25-1.15 2.25-2 5-0.33 0.949-0.66 1.9-1 2.88-1.07 3.36-2.05 6.73-3 10.1-1.51-1.23-1.51-1.23-3-3-0.441-5.12 0.814-9.96 4-14 3.23-2.15 4.28-2.2 8-2z" fill="#383A39"/>
<path transform="translate(779,706)" d="m0 0 2 2c-1.07 1.8-2.16 3.59-3.25 5.38-0.603 0.998-1.21 2-1.83 3.02-1.89 2.55-2.99 3.53-5.92 4.6-0.0542-1.6-0.0929-3.21-0.125-4.81-0.0232-0.893-0.0464-1.79-0.0703-2.71 0.195-2.48 0.195-2.48 2.2-5.48 2.48 0.99 2.48 0.99 5 2 0.66-1.32 1.32-2.64 2-4z" fill="#289A3B"/>
<path transform="translate(1236,394)" d="m0 0h2c-0.413 6.16-1.53 11.3-4 17-0.454 1.13-0.908 2.27-1.38 3.44-1.62 2.56-1.62 2.56-4.31 3.44-0.763 0.0412-1.53 0.0825-2.31 0.125 0.639-0.639 1.28-1.28 1.94-1.94 2.39-3.56 2.64-5.89 2.89-10.1 0.176-1.99 0.176-1.99 1.18-3.99h2c-0.0412-0.949-0.0825-1.9-0.125-2.88 0.125-3.12 0.125-3.12 2.12-5.12z" fill="#414241"/>
<path transform="translate(229,474)" d="m0 0c0.66 0.33 1.32 0.66 2 1 1.3 6.63 1.44 12.7-1 19-0.99-0.33-1.98-0.66-3-1 0.33-0.99 0.66-1.98 1-3-0.99-0.33-1.98-0.66-3-1 0.33-1.32 0.66-2.64 1-4h3v-3c-0.66-0.33-1.32-0.66-2-1 0.33-0.66 0.66-1.32 1-2-0.33-0.99-0.66-1.98-1-3h2v-2z" fill="#434544"/>
<path transform="translate(232,679)" d="m0 0c0.99 0.33 1.98 0.66 3 1 0.474 1.15 0.949 2.31 1.44 3.5 0.516 1.15 1.03 2.31 1.56 3.5 2.02 0.733 2.02 0.733 4 1 1.31 1.94 1.31 1.94 2 4-0.33 0.66-0.66 1.32-1 2 0.66 0.33 1.32 0.66 2 1h-5c-0.66-1.32-1.32-2.64-2-4h-2c-0.289-0.639-0.577-1.28-0.875-1.94-0.953-2.21-0.953-2.21-3.12-3.06 0.186-0.784 0.371-1.57 0.562-2.38 0.697-2.6 0.697-2.6-0.562-4.62z" fill="#299A3B"/>
<path transform="translate(1274,441)" d="m0 0c4.39-0.169 7.16-0.0505 11 2 2.67 0.168 2.67 0.168 5 0-0.33 0.66-0.66 1.32-1 2-0.676-0.0105-1.35-0.0209-2.05-0.0317-3.07-0.0416-6.13-0.0676-9.2-0.0933-1.06-0.0168-2.13-0.0335-3.22-0.0508-1.02-0.00645-2.05-0.0129-3.11-0.0195-0.943-0.0105-1.89-0.0209-2.86-0.0317-3.83 0.339-5.87 1.53-8.57 4.23v-5c6.93-0.99 6.93-0.99 14-2v-1z" fill="#434544"/>
<path transform="translate(1170 418)" d="m0 0c2.86 1.14 4.87 2.17 7.12 4.25v2c0.99 0.33 1.98 0.66 3 1-0.33 1.32-0.66 2.64-1 4-4.31-0.482-5.99-1.58-8.69-4.94-0.581-0.71-1.16-1.42-1.76-2.15-0.512-0.63-1.02-1.26-1.55-1.91-0.66-0.66-1.32-1.32-2-2 2-1 2-1 4.88-0.25z" fill="#434544"/>
<path transform="translate(762,718)" d="m0 0h5c0.289 0.639 0.577 1.28 0.875 1.94 0.953 2.21 0.953 2.21 3.12 3.06-0.99 0.33-1.98 0.66-3 1v2c-3.46 3-3.46 3-6 3-0.195-1.46-0.381-2.92-0.562-4.38-0.104-0.812-0.209-1.62-0.316-2.46-0.121-2.16-0.121-2.16 0.879-4.16z" fill="#299A3B"/>
<path transform="translate(869,640)" d="m0 0c1.32 0.33 2.64 0.66 4 1 0.667 3.33 1.33 6.67 2 10-3.48 0.398-4.81 0.124-7.81-1.81-0.722-0.722-1.44-1.44-2.19-2.19v-3c1.32-0.66 2.64-1.32 4-2v-2z" fill="#23973B"/>
<path transform="translate(1261,455)" d="m0 0h1c0.0581 3.58 0.0936 7.17 0.125 10.8 0.0168 1.02 0.0335 2.03 0.0508 3.08 0.00645 0.98 0.0129 1.96 0.0195 2.97 0.0105 0.901 0.0209 1.8 0.0317 2.73-0.24 2.61-0.904 4.23-2.23 6.47-0.66-0.33-1.32-0.66-2-1v-11c0.66-0.33 1.32-0.66 2-1 0.47-3.05 0.47-3.05 0.625-6.56 0.0748-1.2 0.15-2.4 0.227-3.63 0.049-0.927 0.098-1.85 0.148-2.81z" fill="#376340"/>
<path transform="translate(880,657)" d="m0 0c1.75 1.81 1.75 1.81 3 4-0.312 2.25-0.312 2.25-1 4-2.88-0.25-2.88-0.25-6-1-1.87-2.55-2-3.81-2-7 3-1 3-1 6 0z" fill="#23973B"/>
<path transform="translate(706,388)" d="m0 0v2c-1.65 0.33-3.3 0.66-5 1v2c-9.41 2.48-9.41 2.48-14 1 3.17-2.11 5.86-3.02 9.5-4.12 1.14-0.353 2.29-0.706 3.47-1.07 3.03-0.805 3.03-0.805 6.03-0.805z" fill="#3A3B3B"/>
<path transform="translate(1245,424)" d="m0 0h7c-0.33 1.32-0.66 2.64-1 4h-2v2c-2.31 0.66-4.62 1.32-7 2v-2c-0.99 0.33-1.98 0.66-3 1 0.33-0.99 0.66-1.98 1-3 0.99 0.33 1.98 0.66 3 1v-2h3c-0.33-0.99-0.66-1.98-1-3z" fill="#424443"/>
<path transform="translate(405,639)" d="m0 0h7c-0.33 1.98-0.66 3.96-1 6h-2v2c-3-1-3-1-4-2-0.33 0.99-0.66 1.98-1 3-0.125-6.75-0.125-6.75 1-9z" fill="#2A9B3C"/>
<path transform="translate(846,641)" d="m0 0c2.62 0.375 2.62 0.375 5 1v3c0.639 0.247 1.28 0.495 1.94 0.75 2.06 1.25 2.06 1.25 2.81 3.38 0.124 0.928 0.124 0.928 0.25 1.88-0.99 0.33-1.98 0.66-3 1-2.53-2.36-3.89-3.66-5-7-2-1.21-2-1.21-4-2l2-2z" fill="#23973B"/>
<path transform="translate(1207,419)" d="m0 0c0.66 0.33 1.32 0.66 2 1v22c-3-3-3-3-3.36-5.07 0.00935-0.774 0.0187-1.55 0.0283-2.35 0.00773-1.26 0.00773-1.26 0.0156-2.55 0.0206-0.877 0.0412-1.75 0.0625-2.66 0.00516-0.884 0.0103-1.77 0.0156-2.68 0.0803-6.54 0.0803-6.54 1.23-7.7z" fill="#414242"/>
<path transform="translate(1090,414)" d="m0 0c0.66 0.66 1.32 1.32 2 2-1 1-1 1-3.5 1.1-1.51-0.0174-1.51-0.0174-3.06-0.0352-1.01-0.00902-2.02-0.018-3.07-0.0273-1.17-0.0174-1.17-0.0174-2.37-0.0352-0.33 1.32-0.66 2.64-1 4h-2c-0.33-1.32-0.66-2.64-1-4 4.91-2.41 8.4-3.55 14-3z" fill="#3C3D3D"/>
<path transform="translate(551 644)" d="m0 0c0.639 0.247 1.28 0.495 1.94 0.75 0.33 0.99 0.66 1.98 1 3-2.94 1.52-5.92 2.8-9 4-0.33-1.65-0.66-3.3-1-5h3v-2c2-1 2-1 4.06-0.75z" fill="#404040"/>
<path transform="translate(263,714)" d="m0 0c2.97 0.33 5.94 0.66 9 1v2c0.66 0.66 1.32 1.32 2 2-3.91 1.26-6.37 0.816-10-1-0.33-1.32-0.66-2.64-1-4z" fill="#299A3B"/>
<path transform="translate(424,525)" d="m0 0h2c0.369 9.41 0.369 9.41-2 14h-1c-0.195-1.99-0.391-3.97-0.586-5.96-0.341-2.34-0.341-2.34-2.41-5.04 0.99-0.33 1.98-0.66 3-1l1-2z" fill="#299A3B"/>
<path transform="translate(1382,512)" d="m0 0c1.43 2.35 2.09 3.48 1.62 6.25-0.206 0.577-0.412 1.15-0.625 1.75h-2v4h-2v-7c-0.99-0.33-1.98-0.66-3-1v-2c3-2 3-2 6-2z" fill="#404040"/>
<path transform="translate(887 666)" d="m0 0c1.21 0.0309 1.21 0.0309 2.44 0.0625 1.1 3.29 0.8 4.71 0 8-1.65-0.33-3.3-0.66-5-1-0.381-1.99-0.713-3.99-1-6 1-1 1-1 3.56-1.06z" fill="#23973B"/>
<path transform="translate(1020 514)" d="m0 0c1.21 0.0135 1.21 0.0135 2.45 0.0273 0.922 0.0174 0.922 0.0174 1.86 0.0352-0.66 0.66-1.32 1.32-2 2h-3v2c-3.3 0.33-6.6 0.66-10 1 3.56-4.74 5.12-5.14 10.7-5.06z" fill="#424443"/>
<path transform="translate(1260,450)" d="m0 0c2.51 3.77 2.03 6.39 1.62 10.7-0.0567 0.702-0.113 1.4-0.172 2.13-0.141 1.73-0.296 3.46-0.453 5.19h-1c-0.33-1.65-0.66-3.3-1-5h-1v-11h2v-2z" fill="#424443"/>
<path transform="translate(659,420)" d="m0 0c1 3 1 3 0.293 4.94-0.547 1.02-0.547 1.02-1.11 2.06-0.357 0.681-0.714 1.36-1.08 2.06-0.964 1.69-2.03 3.32-3.11 4.94-1.48-3.84-0.614-6.31 1-10 2.12-2.38 2.12-2.38 4-4z" fill="#424342"/>
<path transform="translate(301,499)" d="m0 0v2c-0.759 0.41-1.52 0.82-2.3 1.24-0.994 0.539-1.99 1.08-3.01 1.63-1.48 0.801-1.48 0.801-2.99 1.62-2.8 1.52-2.8 1.52-5.7 3.51 0.188-1.81 0.188-1.81 1-4 2.44-1.62 2.44-1.62 5-3 0.66-0.66 1.32-1.32 2-2 3-1 3-1 6-1z" fill="#2A9B3C"/>
<path transform="translate(1316,423)" d="m0 0h5c-1.98 0.99-1.98 0.99-4 2-0.33-0.66-0.66-1.32-1-2zm-3 3c0 3 0 3-1 5h-2v6c-0.66-0.33-1.32-0.66-2-1-0.625-2.56-0.625-2.56-1-5h2c0.289-0.639 0.578-1.28 0.875-1.94 1.12-2.06 1.12-2.06 3.12-3.06z" fill="#414242"/>
<path transform="translate(1031,505)" d="m0 0c0.66 0.33 1.32 0.66 2 1-4.57 4.95-8.13 8.43-15.1 9-1.65 0.0361-3.29 0.0492-4.94 0 0.33-0.66 0.66-1.32 1-2 1.93-0.466 3.86-0.928 5.8-1.37 4.31-1.24 8.03-3.46 11.2-6.63z" fill="#18191A"/>
<path transform="translate(691,394)" d="m0 0c-0.66 0.66-1.32 1.32-2 2h-3v2h-2v2c-0.99 0.33-1.98 0.66-3 1-0.66-0.66-1.32-1.32-2-2 3.38-4.99 6.15-5.13 12-5z" fill="#424443"/>
<path transform="translate(695,430)" d="m0 0 2 1c-2.67 4-5.33 8-8 12-0.931-2.61-1.15-3.64-0.0625-6.25 0.526-0.866 0.526-0.866 1.06-1.75h2c0.186-0.959 0.186-0.959 0.375-1.94 0.206-0.681 0.413-1.36 0.625-2.06l2-1z" fill="#424743"/>
<path transform="translate(771 400)" d="m0 0c2.46 2.92 1.97 5.31 1.69 9-0.99 0.495-0.99 0.495-2 1 0.33-1.98 0.66-3.96 1-6-2.64-0.66-5.28-1.32-8-2v-2c2.94-0.899 4.44-1.24 7.31 0z" fill="#424443"/>
<path transform="translate(662,738)" d="m0 0v5c-2.64-0.33-5.28-0.66-8-1 0.33-0.99 0.66-1.98 1-3 3-1 3-1 7-1z" fill="#23973B"/>
<path transform="translate(835,665)" d="m0 0 2 2c-0.375 3.12-0.375 3.12-1 6h-4c-0.33-1.98-0.66-3.96-1-6 1.32-0.66 2.64-1.32 4-2z" fill="#23973B"/>
<path transform="translate(1182,430)" d="m0 0c3.09 2.53 3.91 5.22 5 9-2.97-0.495-2.97-0.495-6-1-0.0424-2.33-0.0409-4.67 0-7 0.33-0.33 0.66-0.66 1-1z" fill="#434544"/>
<path transform="translate(731,388)" d="m0 0h9v2c0.99 0.33 1.98 0.66 3 1h-12v-3z" fill="#424443"/>
<path transform="translate(306,710)" d="m0 0c2.73 0.482 5.25 1.09 7.88 2 3.37 1.08 6.62 1.58 10.1 2l-1 2c-6.16-0.931-11.6-1.79-17-5v-1z" fill="#000102"/>
<path transform="translate(707,719)" d="m0 0 2 2c-0.375 2.12-0.375 2.12-1 4-1.65-0.33-3.3-0.66-5-1v-2c-1.32-0.66-2.64-1.32-4-2 6.05-0.977 6.05-0.977 8-1z" fill="#2A9B3C"/>
<path transform="translate(839 591)" d="m0 0c1.15 0.102 2.3 0.204 3.49 0.309 0.869 0.0838 1.74 0.168 2.63 0.254v1l-5.96 0.684c-2.24 0.288-2.24 0.288-5.04 1.32v-2h-8v-1c4.46-0.915 8.35-0.978 12.9-0.562z" fill="#2A9B3C"/>
<path transform="translate(943,441)" d="m0 0h2c-1.88 7.75-1.88 7.75-3 10h-2c0.75-7.75 0.75-7.75 3-10z" fill="#424342"/>
<path transform="translate(752,649)" d="m0 0c0.99 0.33 1.98 0.66 3 1 0.33 2.31 0.66 4.62 1 7h-3c-0.33-1.65-0.66-3.3-1-5-0.33 0.66-0.66 1.32-1 2-0.33-1.32-0.66-2.64-1-4 0.66-0.33 1.32-0.66 2-1z" fill="#23973B"/>
<path transform="translate(684,598)" d="m0 0c1.79 0.114 3.58 0.241 5.38 0.375 1.5 0.104 1.5 0.104 3.02 0.211 2.6 0.414 2.6 0.414 4.6 2.41h-12c-0.33-0.99-0.66-1.98-1-3z" fill="#2A9B3C"/>
<path transform="translate(957,424)" d="m0 0c0.99 0.33 1.98 0.66 3 1-0.928 1.01-1.87 2.01-2.81 3-0.783 0.835-0.783 0.835-1.58 1.69-1.61 1.31-1.61 1.31-4.61 1.31v-3c2.81-2.25 2.81-2.25 6-4z" fill="#414242"/>
<path transform="translate(424,628)" d="m0 0h1v9h-1v-9z" fill="#000102"/>
<path transform="translate(888,648)" d="m0 0 2 1c-0.33 0.66-0.66 1.32-1 2-0.33-0.99-0.66-1.98-1-3z" fill="#000002"/>
<path transform="translate(335,517)" d="m0 0 2 1c-0.33 0.66-0.66 1.32-1 2-0.33-0.99-0.66-1.98-1-3z" fill="#000102"/>
<path transform="translate(366,721)" d="m0 0 2 1z" fill="#000102"/>
<path transform="translate(556,639)" d="m0 0 2 1z" fill="#000102"/>
<path transform="translate(866,613)" d="m0 0 2 1z" fill="#000102"/>
<path transform="translate(472,473)" d="m0 0 2 1z" fill="#000102"/>
</svg>
